<svg xmlns="http://www.w3.org/2000/svg">
  <defs>
    <!-- Icons go here -->
    <symbol id="icon-coats" viewBox="-5.0 -10.0 110.0 135.0">
        <path d="m39.891 72.18c-1.8203 0-3.4648-1.0977-4.1602-2.7812-0.69922-1.6836-0.3125-3.6211 0.97656-4.9102 1.2852-1.2891 3.2227-1.6719 4.9062-0.97656 1.6836 0.69922 2.7812 2.3398 2.7812 4.1602-0.003906 2.4883-2.0195 4.5039-4.5039 4.5078zm0-6.0781c-0.63672 0-1.2109 0.38281-1.4531 0.96875-0.24609 0.58984-0.10938 1.2656 0.33984 1.7148 0.44922 0.45312 1.1289 0.58594 1.7148 0.34375 0.58984-0.24609 0.97266-0.82031 0.97266-1.457 0-0.86719-0.70703-1.5703-1.5742-1.5703z"/>
        <path d="m39.891 85.367c-1.8203 0-3.4648-1.0977-4.1602-2.7812-0.69922-1.6797-0.3125-3.6172 0.97266-4.9062 1.2891-1.2891 3.2266-1.6758 4.9102-0.98047 1.6797 0.69922 2.7812 2.3398 2.7812 4.1602 0 2.4883-2.0156 4.5039-4.5039 4.5078zm0-6.0781c-0.63672 0-1.2109 0.38281-1.4531 0.97266-0.24609 0.58984-0.10938 1.2656 0.33984 1.7148 0.45312 0.44922 1.1289 0.58594 1.7188 0.33984 0.58594-0.24609 0.96875-0.82031 0.96875-1.457-0.007813-0.86328-0.71094-1.5625-1.5742-1.5625z"/>
        <path d="m60.109 72.18c-1.8242 0-3.4648-1.0977-4.1641-2.7812-0.69531-1.6836-0.3125-3.6211 0.97656-4.9102 1.2891-1.2891 3.2266-1.6719 4.9102-0.97656 1.6836 0.69922 2.7773 2.3398 2.7773 4.1602 0 2.4883-2.0156 4.5039-4.5 4.5078zm0-6.0781c-0.63672 0-1.2109 0.38281-1.457 0.96875-0.24219 0.58984-0.10938 1.2656 0.34375 1.7148 0.44922 0.45312 1.125 0.58594 1.7148 0.34375 0.58594-0.24609 0.96875-0.82031 0.96875-1.457 0-0.86719-0.70313-1.5703-1.5703-1.5703z"/>
        <path d="m60.109 85.367c-1.8242 0-3.4648-1.0977-4.1641-2.7812-0.69531-1.6797-0.3125-3.6172 0.97656-4.9062 1.2852-1.2891 3.2227-1.6758 4.9062-0.98047 1.6836 0.69922 2.7812 2.3398 2.7812 4.1602 0.003906 2.4883-2.0156 4.5039-4.5 4.5078zm0-6.0781c-0.63672 0-1.2109 0.38281-1.457 0.97266-0.24219 0.58594-0.10938 1.2656 0.34375 1.7148 0.44922 0.44922 1.125 0.58594 1.7148 0.33984 0.58594-0.24219 0.96875-0.81641 0.96875-1.4531-0.003907-0.86719-0.70703-1.5664-1.5703-1.5664z"/>
        <path d="m73.281 93.359h-46.562c-0.80859 0-1.4609-0.65625-1.4609-1.4648v-46.973c0-0.15625 0.027344-14.727-7.3516-21.234h-0.003906c-0.40625-0.35547-0.58203-0.90625-0.45703-1.4297 0.12109-0.52734 0.52344-0.94141 1.043-1.082l12.305-3.2969 9.1484-10.723c0.27734-0.32812 0.68359-0.51562 1.1133-0.51562h17.871c0.42969 0 0.83594 0.1875 1.1133 0.51562l9.1484 10.723 12.305 3.2969c0.51953 0.14062 0.92187 0.55469 1.043 1.082 0.125 0.52344-0.050781 1.0742-0.45703 1.4297-7.3984 6.5195-7.3555 21.074-7.3516 21.219v46.984c0 0.80469-0.64453 1.457-1.4453 1.4688zm-45.094-1.4648zm0-1.4648h43.625v-45.508c0-0.58594-0.039062-13.719 6.5312-21.562l-10.352-2.7734v0.003906c-0.28516-0.078125-0.54297-0.23828-0.73438-0.46484l-8.9961-10.555h-16.52l-9.0078 10.547c-0.19141 0.22656-0.44922 0.38672-0.73438 0.46484l-10.352 2.7734c6.5703 7.8438 6.5352 20.973 6.5312 21.574z"/>
        <path d="m18.207 74.695h-13.129c-0.41406-0.003906-0.8125-0.17969-1.0898-0.48828-0.27734-0.30859-0.41016-0.72266-0.36719-1.1367 1.8906-17.43 13.383-49.609 13.867-50.977 0.27344-0.76172 1.1133-1.1562 1.875-0.88281 0.76172 0.27344 1.1562 1.1133 0.88281 1.875-0.11719 0.32031-11.148 31.219-13.516 48.672h10.215c0.36719-2.3672 1.2461-7.7539 2.4141-13.27 2.8867-13.633 4.9883-16.426 6.4961-17.336l-0.003907-0.003906c0.33594-0.20313 0.73438-0.26563 1.1133-0.17578 0.38281 0.089844 0.71094 0.33203 0.91016 0.66406 0.20312 0.33594 0.26562 0.73828 0.16797 1.1172-0.09375 0.37891-0.33594 0.70312-0.67188 0.90234-0.35938 0.21875-2.2969 1.9844-5.1445 15.43-1.5234 7.25-2.5625 14.281-2.5703 14.352-0.10547 0.71875-0.72266 1.2539-1.4492 1.2578z"/>
        <path d="m18.207 83.152h-13.129c-0.80859 0-1.4648-0.65625-1.4648-1.4648v-8.457c0-0.80859 0.65625-1.4648 1.4648-1.4648h13.129c0.38672 0 0.76172 0.15625 1.0352 0.42969 0.27344 0.27344 0.42969 0.64844 0.42969 1.0352v8.457c0 0.38672-0.15625 0.76172-0.42969 1.0352-0.27344 0.27344-0.64844 0.42969-1.0352 0.42969zm-11.664-2.9297h10.199v-5.5273h-10.199z"/>
        <path d="m94.922 74.695h-13.129c-0.72656-0.003906-1.3438-0.53516-1.4492-1.2578-0.007812-0.070312-1.0391-7.1016-2.5742-14.352-2.8477-13.445-4.7852-15.211-5.1445-15.43-0.68359-0.42188-0.89844-1.3164-0.48438-2.0039 0.41797-0.6875 1.3125-0.91016 2-0.5 1.5078 0.91406 3.6094 3.7109 6.4961 17.336 1.1719 5.5156 2.0469 10.902 2.4141 13.27h10.215c-2.3672-17.457-13.402-48.355-13.516-48.672-0.27344-0.76172 0.12109-1.6016 0.88281-1.875 0.76172-0.27344 1.6016 0.125 1.875 0.88281 0.48828 1.3672 11.977 33.539 13.867 50.977 0.042969 0.41406-0.089844 0.82813-0.36719 1.1367-0.27734 0.3125-0.67578 0.48828-1.0898 0.48828z"/>
        <path d="m94.922 83.152h-13.129c-0.80859 0-1.4648-0.65625-1.4648-1.4648v-8.457c0-0.80859 0.65625-1.4648 1.4648-1.4648h13.129c0.38672 0 0.76172 0.15625 1.0352 0.42969 0.27344 0.27344 0.42969 0.64844 0.42969 1.0352v8.457c0 0.38672-0.15625 0.76172-0.42969 1.0352-0.27344 0.27344-0.64844 0.42969-1.0352 0.42969zm-11.664-2.9297h10.199v-5.5273h-10.199z"/>
        <path d="m50 32.906c-0.60547 0-1.1523-0.375-1.3672-0.94141l-8.9375-23.332c-0.17187-0.44922-0.10937-0.95703 0.16016-1.3516 0.27344-0.39844 0.72656-0.63672 1.207-0.63672h17.875c0.48047 0 0.93359 0.23828 1.207 0.63672 0.26953 0.39453 0.33203 0.90234 0.16016 1.3516l-8.9375 23.332c-0.21484 0.56641-0.76172 0.94141-1.3672 0.94141zm-6.8047-23.336 6.8047 17.773 6.8047-17.773z"/>
        <path d="m50 93.359c-0.80859 0-1.4648-0.65625-1.4648-1.4648v-60.449c0-0.80859 0.65625-1.4648 1.4648-1.4648s1.4648 0.65625 1.4648 1.4648v60.449c0 0.38672-0.15625 0.76172-0.42969 1.0352-0.27344 0.27344-0.64844 0.42969-1.0352 0.42969z"/>
        <path d="m50 46.875c-0.19531 0-0.39062-0.039062-0.57031-0.11719-5.8281-2.4727-9.6641-6.0156-11.406-10.531-1.8125-4.6992-0.81641-9.1289-0.14063-11.188l-7.0625-4.6328h-0.003906c-0.67578-0.44141-0.86719-1.3516-0.42578-2.0273 0.44531-0.67969 1.3555-0.86719 2.0312-0.42578l8.0391 5.2734c0.60937 0.39844 0.83203 1.1797 0.53125 1.8398-0.023438 0.046875-2.2266 4.9922-0.22266 10.133 1.4531 3.7305 4.75 6.7109 9.8047 8.8555h-0.003907c0.64844 0.26562 1.0195 0.95703 0.87891 1.6445-0.13672 0.69141-0.74609 1.1836-1.4492 1.1758z"/>
        <path d="m50 46.875c-0.69922 0-1.3008-0.48828-1.4375-1.1719-0.14062-0.68359 0.22266-1.3711 0.86719-1.6406 5.0781-2.1484 8.375-5.1406 9.8164-8.8906 1.9961-5.168-0.21484-10.051-0.23438-10.102h-0.003907c-0.30469-0.65625-0.082031-1.4414 0.52734-1.8359l8.0391-5.2734h0.003906c0.67578-0.4375 1.5742-0.24609 2.0156 0.42578s0.25781 1.5742-0.41016 2.0195l-7.0625 4.6328c0.67188 2.0586 1.6719 6.4883-0.14062 11.188-1.7422 4.5156-5.5781 8.0586-11.406 10.531v0.003907c-0.18359 0.074219-0.37891 0.11328-0.57422 0.11328z"/>
        <path d="m41.945 58.113h-8.2031c-0.8125 0-1.4688-0.65625-1.4688-1.4648v-8.3984c0-0.80859 0.65625-1.4648 1.4688-1.4648h8.2031c0.38672 0 0.75781 0.15625 1.0352 0.42969 0.27344 0.27344 0.42578 0.64844 0.42578 1.0352v8.3984c0 0.38672-0.15234 0.76172-0.42578 1.0352-0.27734 0.27344-0.64844 0.42969-1.0352 0.42969zm-6.7422-2.9297h5.2734v-5.4688h-5.2734z"/>
        <path d="m66.266 58.113h-8.2031c-0.80859 0-1.4648-0.65625-1.4648-1.4648v-8.3984c0-0.80859 0.65625-1.4648 1.4648-1.4648h8.2031c0.38672 0 0.76172 0.15625 1.0352 0.42969 0.27344 0.27344 0.42969 0.64844 0.42969 1.0352v8.3984c0 0.38672-0.15625 0.76172-0.42969 1.0352-0.27344 0.27344-0.64844 0.42969-1.0352 0.42969zm-6.7422-2.9297h5.2734v-5.4688h-5.2734z"/>

    </symbol>

  </defs>
</svg>