<svg xmlns="http://www.w3.org/2000/svg">
  <defs>
    <!-- Icons go here -->
    <symbol id="icon-ironing" viewBox="0 0 100 125">
        <path d="M92.76,39.84h-7a1.2134,1.2134,0,0,0,.106-.09,1.2366,1.2366,0,0,0,.3416-.91c-.0024-.0637-.278-6.4186.0008-14.1095.3038-8.39-6.708-13.1381-7.0841-13.3867l-.0055-.0036-.0067-.0045c-.0181-.0118-.0378-.0185-.0563-.0293a1.2251,1.2251,0,0,0-.1572-.0815c-.03-.0123-.0612-.0188-.092-.0286a1.2556,1.2556,0,0,0-.1384-.04c-.0311-.006-.0623-.0067-.0934-.01a1.1994,1.1994,0,0,0-.1465-.0123c-.0248,0-.0495.0046-.0743.0062a1.2208,1.2208,0,0,0-.165.0181c-.0185.0038-.0356.0109-.0539.0155a1.2112,1.2112,0,0,0-.1749.054c-.0185.0078-.0354.02-.0538.0281a1.2076,1.2076,0,0,0-.1525.08c-.3022.198-7.4017,4.9569-7.0958,13.3948.2787,7.6909.0032,14.0458.0008,14.1095A1.2366,1.2366,0,0,0,71,39.75a1.2134,1.2134,0,0,0,.106.09H35.1252a3.5054,3.5054,0,0,0,1.2525-2.7181,3.5953,3.5953,0,0,0-.7058-2.16,3.6223,3.6223,0,0,0-.0182-4.3213,3.621,3.621,0,0,0,.0182-4.32,3.5956,3.5956,0,0,0,.7058-2.16,3.2568,3.2568,0,0,0-3.0852-3.3978H11.0169c-2.72,0-4.9328,2.493-4.9328,5.5581A5.8352,5.8352,0,0,0,7.92,30.64a5.8369,5.8369,0,0,0-1.8361,4.3211A5.6989,5.6989,0,0,0,8.6552,39.84H8.4168a3.4,3.4,0,1,0-.0337,6.8c.0112,0,.0225,0,.0337,0H32.2632L48.576,65.4976,30.5024,86.3914h-6.74a1.2377,1.2377,0,0,0,0,2.4753h7.3058a1.239,1.239,0,0,0,.9363-.4279L50.2127,67.39,68.4211,88.4385a1.2393,1.2393,0,0,0,.9363.4279h7.3057a1.2377,1.2377,0,0,0,0-2.4753h-6.74L51.8494,65.4973,68.1622,46.6394H92.76a1.2376,1.2376,0,0,0,1.2376-1.2377V41.0775A1.2376,1.2376,0,0,0,92.76,39.84Zm-84.2-13.52c0-1.7,1.1023-3.0828,2.4575-3.0828H33.2927c.2888,0,.61.3787.61.9225s-.3218.9227-.61.9227H12.5761a1.2376,1.2376,0,1,0,0,2.4752H33.2927c.2888,0,.61.3787.61.9226s-.3215.9224-.61.9224H11.0169C9.6613,29.4025,8.5594,28.02,8.5594,26.32Zm2.4575,5.5579H33.2927c.2877,0,.61.3948.61.9226s-.3223.9233-.61.9233H12.5761a1.2377,1.2377,0,1,0,0,2.4753H33.2927c.2888,0,.61.3787.61.9226,0,.5281-.3223.9226-.61.9226H11.0169c-1.3552,0-2.4575-1.3826-2.4575-3.0828S9.6613,31.8778,11.0169,31.8778Zm67.4156-17.954c1.6073,1.3179,5.5047,5.1038,5.3019,10.7154-.2079,5.7386-.1112,10.7471-.0443,13.0169H73.175c.0669-2.27.1636-7.2783-.0443-13.0169C72.9275,19.0282,76.8249,15.242,78.4325,13.9238Zm-28.22,49.6815L35.5367,46.6394H64.8886ZM91.5219,44.1641H8.4168a.9247.9247,0,0,1-.0176-1.8493H91.5219Z"/>
        <path d="M76.1289,23.9827a.8255.8255,0,1,0-.7965-.7965A.8254.8254,0,0,0,76.1289,23.9827Z"/>
        <path d="M76.1289,29.0857a.8256.8256,0,1,0-.7965-.7965A.8256.8256,0,0,0,76.1289,29.0857Z"/>
        <path d="M76.1289,34.1887a.8256.8256,0,1,0-.7965-.7965A.8256.8256,0,0,0,76.1289,34.1887Z"/>
        <path d="M80.7458,23.9827a.8255.8255,0,1,0-.7965-.7965A.8256.8256,0,0,0,80.7458,23.9827Z"/>
        <path d="M78.4325,19.9732a.8256.8256,0,1,0-.7965-.7965A.8256.8256,0,0,0,78.4325,19.9732Z"/>
        <path d="M80.7458,29.0857a.8256.8256,0,1,0-.7965-.7965A.8257.8257,0,0,0,80.7458,29.0857Z"/>
        <path d="M80.7458,34.1887a.8256.8256,0,1,0-.7965-.7965A.8257.8257,0,0,0,80.7458,34.1887Z"/>
    </symbol>

  </defs>
</svg>