<svg xmlns="http://www.w3.org/2000/svg">
  <defs>
    <!-- Icons go here -->
    <symbol id="icon-light" viewBox="0 0 128 160">
        <path d="M110.7,30.9h-28.2v-13.42c0-4.56-3.72-8.27-8.29-8.27H17.29c-4.57,0-8.29,3.71-8.29,8.27V110.52c0,4.56,3.72,8.27,8.29,8.27H110.7c4.57,0,8.3-3.71,8.3-8.27V39.17c0-4.56-3.72-8.27-8.3-8.27Zm5.3,79.62c0,2.91-2.38,5.27-5.3,5.27h-30.11c2.48-2.79,1.91-6.54,1.91-12.46V33.9h28.2c2.92,0,5.3,2.36,5.3,5.27V110.52Zm-104,0v-7.19c0-2.91,2.38-5.27,5.29-5.27h56.91c2.92,0,5.29,2.36,5.29,5.27v7.19c0,2.91-2.38,5.27-5.29,5.27H17.29c-2.92,0-5.29-2.36-5.29-5.27ZM17.29,12.21h56.91c2.92,0,5.29,2.36,5.29,5.27V96.97c-1.44-1.19-3.28-1.91-5.29-1.91H17.29c-2.01,0-3.86,.72-5.29,1.91V17.48c0-2.91,2.38-5.27,5.29-5.27Z"/><path d="M72.3,105.61H20.32c-1.98,0-1.98,3,0,3h51.98c1.98,0,1.98-3,0-3Z"/>
    </symbol>

  </defs>
</svg>