<svg xmlns="http://www.w3.org/2000/svg">
  <defs>
    <!-- Icons go here -->
    <symbol id="icon-patterns" viewBox="-5.0 -10.0 110.0 135.0">
        <g>
        <path d="m73.438 90.625c-0.72266 0-1.4062 0.16406-2.0195 0.46094l-2.0234-2.0234 3.582-3.582c0.60938-0.60938 0.60938-1.6016 0-2.2109-0.60937-0.60938-1.6016-0.60938-2.2109 0l-3.582 3.582-3.582-3.582c-0.60937-0.60938-1.6016-0.60938-2.2109 0s-0.60938 1.6016 0 2.2109l3.582 3.582-2.0234 2.0234c-0.60938-0.29297-1.2969-0.46094-2.0195-0.46094-2.5859 0-4.6875 2.1016-4.6875 4.6875s2.1016 4.6875 4.6875 4.6875c2.5859 0 4.6875-2.1016 4.6875-4.6875 0-0.72266-0.16406-1.4062-0.46094-2.0195l2.0234-2.0234 2.0234 2.0234c-0.29297 0.60938-0.46094 1.2969-0.46094 2.0195 0 2.5859 2.1016 4.6875 4.6875 4.6875 2.5859 0 4.6875-2.1016 4.6875-4.6875s-2.1016-4.6875-4.6875-4.6875zm-12.5 6.25c-0.85938 0-1.5625-0.70312-1.5625-1.5625 0-0.86328 0.70312-1.5625 1.5625-1.5625 0.86328 0 1.5625 0.70312 1.5625 1.5625 0 0.86328-0.70312 1.5625-1.5625 1.5625zm12.5 0c-0.85938 0-1.5625-0.70312-1.5625-1.5625 0-0.86328 0.70312-1.5625 1.5625-1.5625 0.86328 0 1.5625 0.70312 1.5625 1.5625 0 0.86328-0.70312 1.5625-1.5625 1.5625z"/>
        <path d="m68.75 15.625v-14.062c0-0.86328-0.69922-1.5625-1.5625-1.5625h-14.754c0.53125 1.7812 1.3281 3.9961 2.5 6.1914 3.3359 6.2578 7.9844 9.4336 13.816 9.4336z"/>
        <path d="m37.5 26.562c0-7.1875-2.8359-11.594-2.8672-11.641-0.37109-0.56641-0.33984-1.3125 0.085938-1.8398l10.492-13.082h-21.773c-0.86328 0-1.5625 0.69922-1.5625 1.5625v35.984c2.8008 0.003906 9.0469-0.39453 12.727-3.7891 1.9492-1.7969 2.8984-4.1484 2.8984-7.1953z"/>
        <path d="m68.75 78.125v-59.375c-7.0039 0-12.75-3.8594-16.617-11.164-1.4648-2.7656-2.3906-5.5156-2.9453-7.5547l-11.367 14.18c0.96875 1.8633 2.8047 6.1953 2.8047 12.352 0 3.918-1.3164 7.1172-3.9141 9.5039-4.1953 3.8594-10.66 4.543-14.137 4.6094l14.449 39.016h30.164c0.86328 0 1.5625-0.69922 1.5625-1.5625z"/>
        <path d="m21.875 78.125c0 0.86328 0.69922 1.5625 1.5625 1.5625h10.258l-11.82-31.906z"/>
        </g>
    </symbol>

  </defs>
</svg>