<svg xmlns="http://www.w3.org/2000/svg">
  <defs>
    <!-- Icons go here -->
    <symbol id="icon-sheen" viewBox="0 0 100 125">
        <path d="M70.09,51.6A35.7,35.7,0,0,1,50.4,31.91a2.19,2.19,0,0,0-4.09,0A35.7,35.7,0,0,1,26.62,51.6a2.2,2.2,0,0,0,0,4.09,35.69,35.69,0,0,1,19.69,19.7,2.2,2.2,0,0,0,4.09,0,35.69,35.69,0,0,1,19.69-19.7A2.2,2.2,0,0,0,70.09,51.6Z"/><path d="M73.57,21.14a8.58,8.58,0,1,0,8.57,8.58A8.59,8.59,0,0,0,73.57,21.14Z"/><circle cx="24.79" cy="19.31" r="6.93"/><path d="M25.88,73.76a6.93,6.93,0,1,0,6.94,6.93A6.94,6.94,0,0,0,25.88,73.76Z"/></g>
    </symbol>

  </defs>
</svg>