<svg xmlns="http://www.w3.org/2000/svg">
  <defs>
    <!-- Icons go here -->
    <symbol id="icon-spring" viewBox="-5.0 -10.0 110.0 135.0">
        <path d="m21.082 82.512-0.003906 0.023437c-0.09375 0.45312-0.49609 0.80078-0.98047 0.80078s-0.88672-0.34375-0.98047-0.80078l-0.003907-0.023437c-1.6055-5.7031-3.5742-11.664-5.8945-17.875-2.332-6.2344-5.0352-12.758-8.1094-19.566l-0.011719-0.019531-0.015625-0.03125-0.015625-0.046875-0.003906-0.007812-0.003906-0.015625-0.003906-0.007813-0.003907-0.015625-0.003906-0.007812-0.003906-0.015625v-0.007813l-0.003907-0.019531v-0.003906l-0.003906-0.019532v-0.003906l-0.003906-0.019531v-0.003906l-0.003906-0.019531v-0.003907l-0.003906-0.019531v-0.003906l-0.007813-0.046875v-0.023438l-0.003906-0.023437v-0.11719l0.003906-0.046875 0.007813-0.046875v-0.003906l0.007812-0.042969v-0.003906l0.003906-0.019531v-0.003906l0.003906-0.019532v-0.007812l0.007813-0.019532v-0.007812l0.023437-0.046875 0.003907-0.015625 0.003906-0.007812 0.007813-0.011719 0.003906-0.011719 0.007812-0.011719 0.003906-0.011719 0.035157-0.070312 0.003906-0.003906 0.019531-0.039063 0.003906-0.003906 0.023438-0.039063 0.0625-0.078124 0.015625-0.015626v-0.003906l0.015625-0.015625v-0.003906l0.015625-0.015625v-0.003906l0.054687-0.054688v-0.003906l0.019532-0.015625v-0.003906l0.019531-0.011719 0.058594-0.046875 0.039062-0.023437h0.003907l0.019531-0.011719 0.003906-0.003907 0.019531-0.011718h0.003906l0.019532-0.007813 0.003906-0.003906 0.070312-0.035156 0.046876-0.015625 0.007812-0.003906 0.015625-0.003907 0.007813-0.003906 0.015624-0.003906 0.007813-0.003907 0.015625-0.003906h0.007812l0.019532-0.003906h0.003906l0.019531-0.003906h0.003907l0.019531-0.003906h0.003906l0.019531-0.003907h0.003906l0.019532-0.003906h0.003906l0.046875-0.007813h0.023437l0.023438-0.003906h0.11719l0.046874 0.003906 0.046876 0.007813h0.003906l0.042968 0.007813h0.003907l0.019531 0.003906h0.003906l0.019532 0.003906h0.007812l0.019531 0.007812h0.007813l0.046875 0.023438 0.015625 0.003906 0.007812 0.003906 0.011719 0.007813 0.011719 0.003906 0.011718 0.007813 0.011719 0.003906 0.03125 0.015625 0.019531 0.011719c1.8945 0.93359 4.0625 3.5117 6.5039 7.7227 1.8477 3.1914 3.8945 7.3789 6.1328 12.562v-23.738c-3.1523-0.47266-5.4336-2.332-6.8398-5.5664l-0.023438-0.054687c-1.4453-3.3633-1.9141-8.2422-1.4102-14.629 0.015625-0.20703 0.09375-0.39453 0.21484-0.54297l0.011718-0.015625 0.066406-0.070313 0.007813-0.007812 0.039063-0.035156 0.039062-0.03125 0.007812-0.007813 0.015626-0.007812 0.003906-0.003907 0.015625-0.011718 0.003906-0.003906 0.015625-0.011719 0.003906-0.003907 0.082032-0.046874 0.066406-0.03125h0.003906l0.042969-0.019532h0.003906l0.019531-0.007812h0.003906l0.042969-0.015625h0.003907c0.11719-0.035157 0.24219-0.050781 0.36719-0.042969 0.20703 0.015625 0.39453 0.09375 0.54297 0.21484l0.015625 0.011718 0.070312 0.066407 0.007813 0.007812 0.042968 0.046875 0.03125 0.039063 2.293 2.5977 1.1406 1.2617c0.98438-2.0469 2.0195-4.0859 3.0938-6.1211l0.011719-0.023438 0.023437-0.039062v-0.003906l0.011719-0.019532 0.003907-0.003906 0.007812-0.015625 0.003906-0.003906 0.019532-0.039063 0.007812-0.007812 0.007812-0.011719 0.007813-0.007812 0.007813-0.011719 0.007812-0.007812 0.007812-0.011719 0.007813-0.007813 0.007813-0.011718 0.023437-0.023438 0.03125-0.035156 0.007813-0.007813 0.011718-0.007812 0.007813-0.007813 0.011719-0.007812 0.007812-0.007813 0.011719-0.007812 0.007812-0.007813 0.011719-0.007812 0.007812-0.007813c0.046876-0.035156 0.09375-0.070312 0.14453-0.097656l0.023437-0.011719 0.003907-0.003906 0.019531-0.007812h0.003906l0.019531-0.007813h0.003906l0.042969-0.019531 0.019531-0.007813h0.003907l0.019531-0.007812h0.003906l0.019532-0.007813 0.003906-0.003906 0.019531-0.003906 0.007813-0.003906 0.019531-0.003907 0.007812-0.003906 0.015625-0.003906 0.007813-0.003907 0.015625-0.003906 0.007812-0.003906 0.015625-0.003906 0.007813-0.003906 0.015625-0.003907 0.011719-0.003906h0.035156l0.023437-0.003906h0.023438l0.011719-0.003907h0.17578l0.011719 0.003907h0.011718l0.070313 0.023437 0.007812 0.003906 0.015625 0.003907 0.007813 0.003906 0.015625 0.003906 0.007812 0.003907 0.015625 0.003906 0.03125 0.015625 0.019531 0.007812h0.003907l0.019531 0.007813h0.003906l0.019532 0.007812h0.003906l0.019531 0.007813 0.023437 0.011719 0.039063 0.023437h0.003906l0.019531 0.011719 0.003907 0.003906 0.015625 0.007812 0.003906 0.003907 0.039062 0.019531 0.007813 0.007812 0.011719 0.007813 0.007812 0.007813 0.011719 0.007812 0.007813 0.007812 0.011718 0.007813 0.007813 0.007813 0.011719 0.007812 0.023437 0.023438 0.035156 0.03125 0.007813 0.007812 0.007812 0.011719 0.007813 0.007812 0.007812 0.011719 0.007813 0.007812 0.007812 0.011719 0.007813 0.007813 0.007812 0.011718 0.007813 0.007813c0.035156 0.042969 0.070312 0.09375 0.097656 0.14453l0.011719 0.023438 0.003906 0.003906 0.007813 0.019531v0.003907l0.007812 0.019531v0.003906c0.57812 1.2812 1.1719 2.5352 1.7695 3.7422 0.39062 0.79297 0.79297 1.5938 1.2148 2.3945 0.39062-0.38672 0.78516-0.79688 1.1875-1.2266 0.71875-0.76953 1.4688-1.6172 2.2422-2.543l0.046876-0.058593v-0.003907l0.019531-0.019531 0.011719-0.015625 0.015624-0.015625 0.007813-0.003906 0.058594-0.058594 0.011719-0.007812 0.007812-0.007813 0.011719-0.007812 0.015625-0.015625 0.011718-0.007813 0.007813-0.007812 0.011719-0.007813 0.007812-0.007812 0.011719-0.007813 0.007813-0.007812 0.011718-0.007813 0.007813-0.007812 0.011719-0.007813 0.007812-0.007812 0.011719-0.007813 0.007812-0.003906 0.011719-0.007813c0.0625-0.03125 0.13281-0.058593 0.20312-0.078124l0.015625-0.003907h0.007812l0.042969-0.007812h0.007813l0.070312-0.011719h0.074219l0.12109 0.003906h0.007812l0.015625 0.003906h0.011719l0.015625 0.003907h0.011719l0.011719 0.003906h0.011718l0.011719 0.003906h0.011719l0.011718 0.003907h0.011719l0.21094 0.070312 0.011719 0.007812 0.007812 0.003907 0.011719 0.007812 0.007812 0.003907 0.011719 0.007812 0.007812 0.003906 0.011719 0.007813 0.054688 0.027343 0.015625 0.011719 0.003906 0.003907 0.015625 0.011718 0.003906 0.003906 0.019531 0.011719h0.003907l0.058593 0.046875h0.003907l0.019531 0.019532 0.015625 0.011718 0.015625 0.015625 0.003906 0.007813 0.058594 0.058594 0.007812 0.011718 0.007813 0.007813 0.007813 0.011719 0.015624 0.015624 0.007813 0.011719 0.007813 0.007813 0.007812 0.011718 0.007812 0.007813 0.007813 0.011719 0.007813 0.007812 0.007812 0.011719 0.007812 0.007813 0.007813 0.011718 0.007813 0.007813 0.007812 0.011719 0.003906 0.007812 0.007813 0.011719c0.03125 0.0625 0.058593 0.13281 0.078125 0.20312l0.003906 0.015625v0.007812l0.007812 0.042969v0.007812l0.011719 0.070313c0.70703 6.082 0.35547 10.805-1.0547 14.16-1.3711 3.2617-3.707 5.2539-7 5.957v23.797c2.2383-5.1797 4.2852-9.3711 6.1328-12.562 2.4375-4.2109 4.6055-6.7891 6.5039-7.7227l0.019532-0.011719 0.03125-0.015624 0.011718-0.003907 0.011719-0.007812 0.011719-0.003907 0.011719-0.007812 0.007812-0.003906 0.015625-0.003906 0.046875-0.023438h0.007813l0.019531-0.007812h0.007813l0.019531-0.003907h0.003906l0.019531-0.003906h0.003906l0.042969-0.007813h0.003907l0.046874-0.007812 0.046876-0.003906h0.11719l0.023437 0.003906h0.023438l0.046875 0.007812h0.003906l0.019531 0.003907h0.003907l0.019531 0.003906h0.003906l0.019532 0.003906h0.003906l0.019531 0.003907h0.003906l0.019531 0.003906h0.007813l0.015625 0.003906 0.007812 0.003906 0.015626 0.003906 0.007812 0.003907 0.015625 0.003906 0.007813 0.003906 0.046874 0.015625 0.070313 0.035156 0.003906 0.003907 0.019531 0.007812h0.003907l0.019531 0.011719 0.003906 0.003906 0.019532 0.011719h0.003906l0.039062 0.023437 0.058594 0.046876 0.019531 0.011718v0.003906l0.019531 0.015626v0.003906l0.054688 0.054687v0.003907l0.015625 0.015624v0.003907l0.015625 0.015625v0.003906l0.015625 0.015625 0.015625 0.019531 0.007812 0.007813 0.011719-0.011719 0.007813-0.011719 0.003906-0.007812 0.007812-0.007813 0.007813-0.011718v-0.003907l0.007813-0.007812 0.007812-0.011719h0.003906l0.007813-0.011719 0.003906-0.007812 0.007813-0.003907 0.011718-0.007812v-0.003906l0.019532-0.019532 0.011718-0.007812 0.011719-0.011719 0.023437-0.015625 0.011719-0.011718 0.011719-0.007813 0.011719-0.011719 0.023437-0.015625 0.015625-0.007812 0.023438-0.015625 0.011719-0.011719 0.015624-0.007813h0.003907l0.023437-0.015624h0.003906l0.015626-0.007813 0.003906-0.003906 0.007812-0.003907 0.011719-0.007812 0.054687-0.027344 0.046876-0.015625 0.007812-0.003906 0.015625-0.003906 0.007813-0.003907 0.015624-0.003906 0.007813-0.003906 0.015625-0.003906h0.007812l0.019532-0.003906h0.003906l0.019531-0.003907h0.003907l0.019531-0.003906h0.003906l0.019531-0.003906h0.003906l0.019532-0.003907h0.003906l0.046875-0.007812h0.023437l0.023438-0.003906h0.11719l0.046874 0.003906 0.046876 0.007812h0.003906l0.042968 0.007813h0.003907l0.019531 0.003906h0.003906l0.019532 0.003907h0.007812l0.019531 0.007812h0.007813l0.046875 0.023438 0.015625 0.003906 0.007812 0.003906 0.011719 0.007812 0.011719 0.003907 0.011718 0.007812 0.011719 0.003907 0.03125 0.015624 0.019531 0.011719c1.8945 0.93359 4.0625 3.5117 6.5039 7.7227 1.8477 3.1914 3.8945 7.3789 6.1328 12.562v-23.738c-3.1523-0.47266-5.4336-2.332-6.8398-5.5664l-0.023438-0.054688c-1.4414-3.3633-1.9141-8.2422-1.4102-14.629 0.015625-0.20703 0.09375-0.39453 0.21484-0.54297l0.011718-0.015626 0.066406-0.070312 0.007813-0.007812 0.039063-0.035157 0.039062-0.03125 0.007812-0.007812 0.015626-0.007813 0.003906-0.003906 0.015625-0.011719 0.003906-0.003906 0.015625-0.011719 0.003906-0.003906 0.082032-0.046875 0.066406-0.03125h0.003906l0.042969-0.019531h0.003906l0.019531-0.007813h0.003906l0.042969-0.015625h0.003907c0.11719-0.035156 0.24219-0.050781 0.36719-0.042968 0.20703 0.015624 0.39453 0.09375 0.54297 0.21484l0.015625 0.011719 0.070312 0.066406 0.007813 0.007813 0.042968 0.046875 0.03125 0.039062 2.2969 2.5977 1.1406 1.2617c0.98438-2.043 2.0195-4.0859 3.0938-6.1211l0.011719-0.023438 0.023438-0.039062v-0.003907l0.011719-0.019531 0.003906-0.003906 0.007812-0.015625 0.003906-0.003907 0.019532-0.039062 0.007812-0.007812 0.007813-0.011719 0.007812-0.007813 0.007813-0.011718 0.007812-0.007813 0.007813-0.011719 0.007812-0.007812 0.007813-0.011719 0.023437-0.023437 0.03125-0.035157 0.007813-0.007812 0.011718-0.007813 0.007813-0.007812 0.011719-0.007813 0.007812-0.007812 0.011719-0.007813 0.007813-0.007812 0.011718-0.007813 0.007813-0.007812c0.046875-0.035157 0.09375-0.070313 0.14453-0.097657l0.023438-0.011718 0.003906-0.003906 0.019531-0.007813h0.003906l0.019531-0.007813h0.003907l0.042969-0.019531 0.019531-0.007812h0.003906l0.019531-0.007813h0.003906l0.019532-0.007812 0.003906-0.003906 0.019531-0.003907 0.007813-0.003906 0.019531-0.003906 0.007813-0.003907 0.015624-0.003906 0.007813-0.003906 0.015625-0.003906 0.007812-0.003906 0.015626-0.003907 0.007812-0.003906 0.015625-0.003906 0.011719-0.003907h0.035156l0.023438-0.003906h0.023437l0.011719-0.003906h0.17578l0.011719 0.003906h0.011718l0.070313 0.023438 0.007813 0.003906 0.015624 0.003906 0.007813 0.003906 0.015625 0.003907 0.007812 0.003906 0.015626 0.003906 0.03125 0.015625 0.019531 0.007813h0.003906l0.019531 0.007812h0.003906l0.019532 0.007813h0.003906l0.019531 0.007812 0.023438 0.011719 0.039062 0.023437h0.003907l0.019531 0.011719 0.003906 0.003907 0.015625 0.007812 0.003906 0.003906 0.039063 0.019532 0.007812 0.007812 0.011719 0.007812 0.007812 0.007813 0.011719 0.007813 0.007813 0.007812 0.011718 0.007812 0.007813 0.007813 0.011719 0.007813 0.023437 0.023437 0.035157 0.03125 0.007812 0.007813 0.007812 0.011718 0.007813 0.007813 0.007813 0.011719 0.007812 0.007812 0.007812 0.011719 0.007813 0.007812 0.007813 0.011719 0.007812 0.007812c0.035156 0.042969 0.070312 0.09375 0.097656 0.14453l0.011719 0.023437 0.003906 0.003907 0.007813 0.019531v0.003906l0.007812 0.019531v0.003906c0.57812 1.2773 1.168 2.5273 1.7617 3.7344 0.39844 0.8125 0.80469 1.6133 1.2188 2.4062 0.38672-0.38672 0.78516-0.79688 1.1875-1.2266 0.71875-0.76953 1.4688-1.6172 2.2422-2.543l0.046876-0.058594v-0.003906l0.019531-0.019531 0.011719-0.015625 0.015624-0.015625 0.007813-0.003906 0.058594-0.058594 0.011719-0.007813 0.007812-0.007812 0.011719-0.007812 0.015625-0.015626 0.011718-0.007812 0.007813-0.007812 0.011719-0.007813 0.007812-0.007813 0.011719-0.007812 0.007813-0.007812 0.011718-0.007813 0.007813-0.007813 0.011719-0.007812 0.007812-0.007812 0.011719-0.007813 0.007812-0.003906 0.011719-0.007813c0.0625-0.03125 0.13281-0.058594 0.20312-0.078125l0.015625-0.003906h0.007812l0.042969-0.007813h0.007813l0.070312-0.011718h0.074219l0.12109 0.003906h0.007812l0.015625 0.003906h0.011719l0.015625 0.003906h0.011719l0.011719 0.003907h0.011718l0.011719 0.003906h0.011719l0.011718 0.003906h0.011719l0.21094 0.070313 0.011719 0.007812 0.007812 0.003906 0.011719 0.007813 0.007812 0.003906 0.011719 0.007813 0.007812 0.003906 0.011719 0.007812 0.054688 0.027344 0.015625 0.011719 0.003906 0.003906 0.015625 0.011719 0.003906 0.003906 0.019531 0.011719h0.003907l0.058593 0.046875h0.003907l0.019531 0.019531 0.015625 0.011719 0.015625 0.015625 0.003906 0.007813 0.058594 0.058593 0.007812 0.011719 0.007813 0.007812 0.007813 0.011719 0.015624 0.015625 0.007813 0.011719 0.007813 0.007813 0.007812 0.011718 0.007812 0.007813 0.007813 0.011719 0.007813 0.007812 0.007812 0.011719 0.007812 0.007812 0.007813 0.011719 0.007813 0.007812 0.007812 0.011719 0.003906 0.007813 0.007813 0.011718c0.03125 0.0625 0.058593 0.13281 0.078125 0.20313l0.003906 0.015624v0.007813l0.007812 0.042969v0.007812l0.011719 0.070313c0.70703 6.082 0.35938 10.805-1.0547 14.16-1.3711 3.2617-3.707 5.2539-7 5.957v23.797c2.2383-5.1836 4.2852-9.3711 6.1328-12.562 2.4375-4.2109 4.6094-6.7852 6.5039-7.7227l0.019532-0.011719 0.03125-0.015625 0.011718-0.003906 0.011719-0.007813 0.011719-0.003906 0.011719-0.007812 0.007812-0.003906 0.015625-0.003907 0.046875-0.023437h0.007813l0.019531-0.007813h0.007813l0.019531-0.003906h0.003906l0.019531-0.003906h0.003906l0.042969-0.007813h0.003907l0.046874-0.007812 0.046876-0.003906h0.11719l0.023437 0.003906h0.023438l0.046875 0.007812h0.003906l0.019531 0.003906h0.003907l0.019531 0.003907h0.003906l0.019532 0.003906h0.003906l0.019531 0.003906h0.003906l0.019531 0.003907h0.007813l0.015625 0.003906 0.007812 0.003906 0.015626 0.003906 0.007812 0.003906 0.015625 0.003907 0.007813 0.003906 0.046874 0.015625 0.070313 0.035156 0.003906 0.003906 0.019531 0.007813h0.003907l0.019531 0.011719 0.003906 0.003906 0.019532 0.011719h0.003906l0.039062 0.023437 0.058594 0.046875 0.019531 0.011719v0.003906l0.019531 0.015625v0.003907l0.054688 0.054687v0.003906l0.015625 0.015625v0.003906l0.015625 0.015626v0.003906l0.015625 0.015625 0.0625 0.078125 0.023437 0.039062 0.003907 0.003906 0.019531 0.039063 0.003906 0.003906 0.035156 0.070313 0.003907 0.011718 0.007812 0.011719 0.003907 0.011719 0.027343-0.058594 0.003907-0.003906 0.007812-0.019531 0.003906-0.003907 0.007813-0.019531 0.035156-0.058593 0.003906-0.003907 0.011719-0.015625 0.003906-0.007812 0.007813-0.011719 0.003906-0.007813 0.007813-0.011718 0.015624-0.019532 0.03125-0.03125 0.007813-0.011718 0.007813-0.007813 0.007812-0.011719 0.035156-0.035156 0.007813-0.003906 0.011719-0.011719 0.007812-0.003906 0.035156-0.03125 0.015625-0.011719 0.003907-0.003906 0.015624-0.011719 0.003907-0.003906 0.015625-0.011719 0.003906-0.003906 0.015625-0.011719 0.003906-0.003906 0.015625-0.011719 0.003906-0.003906 0.015626-0.011719 0.023437-0.011719 0.003906-0.003906 0.11719-0.058594 0.046875-0.015624 0.007812-0.003907 0.015625-0.003906 0.007813-0.003906 0.015625-0.003907 0.007812-0.003906 0.015625-0.003906h0.007813l0.019531-0.003906h0.003906l0.019532-0.003906h0.003906l0.019531-0.003907h0.003906l0.019531-0.003906h0.003907l0.019531-0.003906h0.003906l0.046875-0.007813h0.023438l0.023437-0.003906h0.11719l0.046875 0.003906 0.046875 0.007813h0.003906l0.042969 0.007812h0.003906l0.019531 0.003907h0.003906l0.019532 0.003906h0.007812l0.019532 0.007812h0.007812l0.046875 0.023438 0.015625 0.003906 0.007812 0.003906 0.011719 0.007813 0.011719 0.003906 0.011719 0.007813 0.011719 0.003906 0.03125 0.015625 0.019531 0.011719c1.8945 0.93359 4.0625 3.5117 6.5039 7.7227 1.8477 3.1914 3.8945 7.3789 6.1328 12.562v-23.738c-3.1523-0.47266-5.4336-2.3281-6.8398-5.5664l-0.023438-0.054687c-1.4414-3.3633-1.9141-8.2422-1.4102-14.629 0.015625-0.20703 0.09375-0.39453 0.21484-0.54297l0.011718-0.015625 0.066407-0.070313 0.007812-0.007812 0.039063-0.035156 0.039062-0.03125 0.007813-0.007813 0.015625-0.007813 0.003906-0.003906 0.015625-0.011718 0.003906-0.003907 0.015625-0.011719 0.003906-0.003906 0.082032-0.046875 0.066406-0.03125h0.003906l0.042969-0.019531h0.003906l0.019531-0.007812h0.003907l0.042969-0.015626h0.003906c0.11719-0.035156 0.24219-0.050781 0.36719-0.042968 0.20703 0.015625 0.39453 0.09375 0.54297 0.21484l0.015625 0.011718 0.070313 0.066406 0.007812 0.007813 0.042969 0.046875 0.03125 0.039062 2.293 2.5977 1.1406 1.2617c0.98438-2.0469 2.0195-4.0859 3.0938-6.1211l0.011719-0.023438 0.023438-0.039062v-0.003906l0.011719-0.019532 0.003906-0.003906 0.007812-0.015625 0.003906-0.003906 0.019532-0.039063 0.007812-0.007812 0.007813-0.011719 0.007812-0.007813 0.007813-0.011718 0.007812-0.007813 0.007813-0.011719 0.007812-0.007812 0.007813-0.011719 0.023437-0.023437 0.03125-0.035156 0.007813-0.007813 0.011718-0.007813 0.007813-0.007812 0.011719-0.007812 0.007812-0.007813 0.011719-0.007813 0.007813-0.007812 0.011718-0.007812 0.007813-0.007813c0.046875-0.035156 0.09375-0.070313 0.14453-0.097656l0.023438-0.011719 0.003906-0.003906 0.019531-0.007813h0.003906l0.019531-0.007812h0.003907l0.042969-0.019531 0.019531-0.007813h0.003906l0.019531-0.007813h0.003906l0.019532-0.007812 0.003906-0.003906 0.019531-0.003906 0.007813-0.003907 0.019531-0.003906 0.007813-0.003906 0.015624-0.003907 0.007813-0.003906 0.015625-0.003906 0.007812-0.003906 0.015626-0.003906 0.007812-0.003907 0.015625-0.003906 0.011719-0.003906h0.035156l0.023438-0.003907h0.023437l0.011719-0.003906h0.17578l0.011719 0.003906h0.011718l0.070313 0.023438 0.007813 0.003906 0.015624 0.003906 0.007813 0.003907 0.015625 0.003906 0.007812 0.003906 0.015626 0.003907 0.03125 0.015624 0.019531 0.007813h0.003906l0.019531 0.007813h0.003906l0.019532 0.007812h0.003906l0.019531 0.007812 0.023438 0.011719 0.039062 0.023438h0.003907l0.019531 0.011719 0.003906 0.003906 0.015625 0.007812 0.003906 0.003906 0.039063 0.019532 0.007812 0.007812 0.011719 0.007813 0.007812 0.007812 0.011719 0.007813 0.007813 0.007812 0.011718 0.007813 0.007813 0.007812 0.011719 0.007813 0.023437 0.023437 0.035157 0.03125 0.007812 0.007813 0.007812 0.011718 0.007813 0.007813 0.007813 0.011719 0.007812 0.007812 0.007812 0.011719 0.007813 0.007813 0.007813 0.011718 0.007812 0.007813c0.035156 0.042969 0.070312 0.09375 0.097656 0.14453l0.011719 0.023438 0.003906 0.003906 0.007813 0.019531v0.003906l0.007812 0.019531v0.003907c0.57812 1.2812 1.1719 2.5352 1.7695 3.7422 0.39062 0.79297 0.79297 1.5938 1.2148 2.3945 0.39062-0.38672 0.78516-0.79688 1.1875-1.2266 0.71875-0.76953 1.4688-1.6172 2.2422-2.543l0.046875-0.058594v-0.003906l0.019531-0.019531 0.011719-0.015625 0.015625-0.015625 0.007812-0.003906 0.058594-0.058594 0.011719-0.007813 0.007812-0.007812 0.011719-0.007812 0.015625-0.015626 0.011719-0.007812 0.007812-0.007812 0.011719-0.007813 0.007812-0.007813 0.011719-0.007812 0.007813-0.007812 0.011718-0.007813 0.007813-0.007813 0.011719-0.007812 0.007812-0.007812 0.011719-0.007813 0.007813-0.003906 0.011718-0.007813c0.0625-0.03125 0.13281-0.058594 0.20312-0.078125l0.015625-0.003906h0.007813l0.042969-0.007813h0.007812l0.070312-0.011718h0.074219l0.12109 0.003906h0.007813l0.015624 0.003906h0.011719l0.015625 0.003906h0.011719l0.011719 0.003907h0.011718l0.011719 0.003906h0.011719l0.011719 0.003906h0.011719l0.21094 0.070313 0.011719 0.007812 0.007812 0.003906 0.011719 0.007813 0.007813 0.003906 0.011718 0.007813 0.007813 0.003906 0.011719 0.007812 0.054687 0.027344 0.015625 0.011719 0.003906 0.003906 0.015625 0.011719 0.003907 0.003906 0.019531 0.011719h0.003906l0.058594 0.046875h0.003906l0.019531 0.019531 0.015625 0.011719 0.015625 0.015625 0.003906 0.007813 0.058594 0.058593 0.007813 0.011719 0.007812 0.007812 0.007813 0.011719 0.015625 0.015625 0.007812 0.011719 0.007813 0.007813 0.007812 0.011718 0.007813 0.007813 0.007812 0.011719 0.007813 0.007812 0.007812 0.011719 0.007813 0.007812 0.007812 0.011719 0.007813 0.007812 0.007812 0.011719 0.003906 0.007813 0.007813 0.011718c0.03125 0.0625 0.058594 0.13281 0.078125 0.20313l0.003906 0.015624v0.007813l0.007813 0.042969v0.007812l0.011719 0.070313c0.70703 6.082 0.35937 10.805-1.0547 14.16-1.3711 3.2617-3.707 5.2539-7 5.957v23.797c2.2383-5.1797 4.2852-9.3711 6.1328-12.562 2.4375-4.2109 4.6055-6.7891 6.5039-7.7227l0.019531-0.011719 0.03125-0.015625 0.011719-0.003906 0.011719-0.007813 0.011718-0.003906 0.011719-0.007812 0.007813-0.003906 0.015624-0.003907 0.046876-0.023437h0.007812l0.019531-0.007813h0.007813l0.019531-0.003906h0.003906l0.019531-0.003906h0.003907l0.042969-0.007813h0.003906l0.046875-0.007812 0.046875-0.003906h0.11719l0.023438 0.003906h0.023437l0.046875 0.007812h0.003907l0.019531 0.003906h0.003906l0.019531 0.003907h0.003906l0.019532 0.003906h0.003906l0.019531 0.003906h0.003907l0.019531 0.003907h0.007812l0.015625 0.003906 0.007813 0.003906 0.015625 0.003906 0.007812 0.003906 0.015625 0.003907 0.007813 0.003906 0.046875 0.015625 0.070312 0.035156 0.003907 0.003906 0.019531 0.007813h0.003906l0.019531 0.011719 0.003906 0.003906 0.019532 0.011719h0.003906l0.039062 0.023437 0.058594 0.046875 0.019532 0.011719v0.003906l0.019531 0.015625v0.003907l0.054687 0.054687v0.003906l0.015625 0.015625v0.003906l0.015625 0.015626v0.003906l0.015625 0.015625 0.0625 0.078125 0.023438 0.039062 0.003906 0.003906 0.019531 0.039063 0.003906 0.003906 0.035157 0.070313 0.003906 0.011718 0.007813 0.011719 0.003906 0.011719 0.007812 0.011719 0.003906 0.007812 0.003907 0.015625 0.023437 0.046875v0.007813l0.007813 0.019531v0.007813l0.003906 0.019531v0.003906l0.003906 0.019531v0.003906l0.007813 0.042969v0.003907l0.007812 0.046874 0.003906 0.046876v0.11719l-0.003906 0.023437v0.023438l-0.007812 0.046875v0.003906l-0.003906 0.019531v0.003907l-0.003907 0.019531v0.003906l-0.003906 0.019532v0.003906l-0.003906 0.019531v0.003906l-0.003907 0.019531v0.007813l-0.003906 0.015625-0.003906 0.007812-0.003906 0.015626-0.003906 0.007812-0.003907 0.015625-0.003906 0.007813-0.015625 0.046874-0.015625 0.03125-0.011719 0.019532c-3.0781 6.8086-5.7812 13.332-8.1094 19.566-2.3203 6.2109-4.2891 12.172-5.8945 17.875l-0.003906 0.023438c-0.09375 0.45312-0.49609 0.80078-0.98047 0.80078s-0.88672-0.34375-0.98047-0.80078l-0.003906-0.023438c-1.6055-5.7031-3.5742-11.664-5.8984-17.879-2.332-6.2344-5.0312-12.754-8.1094-19.562l-0.011719-0.019532-0.011719-0.023437-0.007812-0.019531-0.019532 0.039062-0.011718 0.019532c-3.0742 6.8047-5.7773 13.328-8.1094 19.559-2.3242 6.2148-4.293 12.176-5.8984 17.879l-0.003906 0.023437c-0.09375 0.45312-0.49609 0.80078-0.98047 0.80078s-0.88672-0.34375-0.98047-0.80078l-0.003906-0.023437c-1.6055-5.7031-3.5742-11.664-5.8984-17.879-2.3047-6.1602-4.9688-12.598-8-19.316-3.0312 6.7188-5.6992 13.16-8 19.316-2.3203 6.2148-4.2891 12.176-5.8984 17.879zm47.75-33.52c2.2305 5.1289 4.25 10.113 6.0586 14.949 1.4844 3.9727 2.8242 7.8359 4.0156 11.59v-6.3633c-2.9219-7.1289-5.5469-12.699-7.8594-16.691-0.78125-1.3516-1.5195-2.5117-2.2148-3.4805zm12.074 20.172v6.3633c1.1914-3.75 2.5312-7.6133 4.0156-11.582 1.8086-4.8398 3.8281-9.8242 6.0586-14.957-0.69531 0.97266-1.4336 2.1328-2.2148 3.4844-2.3125 3.9961-4.9336 9.5625-7.8594 16.691zm-4.1992-43.223-0.003906 0.003906-0.058594 0.039063-0.019531 0.011719-0.042969 0.023437-0.019531 0.011719h-0.003906l-0.019532 0.011719h-0.003906l-0.019531 0.011719h-0.003906l-0.019531 0.007812h-0.003907l-0.11328 0.039062-0.019531 0.007813h-0.003907l-0.019531 0.007813h-0.003906l-0.019531 0.003906h-0.003906l-0.042969 0.007812h-0.003907l-0.042968 0.007813h-0.003906c-0.10156 0.011719-0.20703 0.007812-0.30859-0.015625-0.074219-0.015625-0.14453-0.039063-0.21484-0.070313-0.14062-0.066406-0.25781-0.16016-0.34766-0.27344l-0.015625-0.019532-2.0977-2.3164-0.75-0.84766c-0.20312 4.8867 0.26172 8.6523 1.3984 11.297l0.019531 0.042969c1.2031 2.7773 3.1953 4.2656 5.9688 4.4688 2.9531-0.44531 5.0234-2.0781 6.207-4.8906 1.0977-2.6133 1.4727-6.2344 1.125-10.863-0.27344 0.30469-0.53906 0.59766-0.80859 0.88281-0.75391 0.80859-1.4844 1.543-2.1914 2.2031l-0.019531 0.019531-0.015625 0.011719-0.023437 0.023437-0.039063 0.03125v0.003907l-0.019531 0.015625-0.097656 0.058594h-0.003907l-0.019531 0.011718-0.003906 0.003906-0.019531 0.007813-0.003906 0.003906-0.019532 0.007813-0.003906 0.003906-0.070312 0.035156-0.015626 0.003906-0.007812 0.003907-0.015625 0.003906-0.007813 0.003906-0.015624 0.003907-0.007813 0.003906-0.070313 0.023437h-0.011718l-0.011719 0.003907h-0.011719l-0.011718 0.003906h-0.011719l-0.011719 0.003906h-0.011719l-0.011719 0.003906h-0.011718l-0.015625 0.003906h-0.21094l-0.007812-0.003906h-0.023438l-0.015625-0.003906-0.007812-0.003906-0.015625-0.003906-0.007813-0.003907-0.015625-0.003906-0.007812-0.003906-0.015625-0.003907-0.007813-0.003906-0.015625-0.003906-0.007812-0.003906-0.015625-0.003906-0.007813-0.003907-0.015625-0.003906-0.007812-0.003906-0.015625-0.003907-0.007813-0.003906-0.015625-0.003906-0.03125-0.015625-0.011718-0.007813-0.007813-0.003906-0.011719-0.007812-0.007812-0.003906-0.011719-0.007813-0.007813-0.003906-0.011718-0.007813-0.007813-0.003906-0.011719-0.007812-0.007812-0.003907-0.011719-0.007812-0.007812-0.007813-0.011719-0.007812-0.007812-0.007813-0.011719-0.007812-0.007813-0.007813-0.023437-0.015625-0.007813-0.007812-0.011718-0.007813-0.007813-0.007812-0.03125-0.023438-0.007813-0.003906-0.011718-0.011719-0.007813-0.003906-0.011719-0.011719-0.007812-0.003906-0.015625-0.015625-0.011719-0.015625-0.003906-0.003906-0.011719-0.015625-0.023437-0.023438-0.03125-0.039062h-0.003906l-0.015626-0.019531-0.058593-0.097657v-0.003906l-0.011719-0.019531-0.003906-0.003906-0.007813-0.019532c-0.60547-1.125-1.2266-2.3281-1.8516-3.6055-0.32031-0.64453-0.63672-1.2969-0.94531-1.957-0.96094 1.8672-1.8867 3.75-2.7812 5.6406-0.070312 0.15625-0.17969 0.28125-0.30859 0.375zm-37.918 23.051c2.2305 5.1289 4.25 10.113 6.0586 14.949 1.4844 3.9727 2.8242 7.8359 4.0156 11.59v-6.3633c-2.9219-7.1289-5.5469-12.699-7.8594-16.691-0.78125-1.3516-1.5195-2.5117-2.2148-3.4805zm12.074 20.172v6.3633c1.1914-3.7539 2.5312-7.6172 4.0195-11.59 1.8086-4.8359 3.8281-9.8203 6.0586-14.949-0.69531 0.97266-1.4336 2.1328-2.2188 3.4805-2.3125 3.9961-4.9336 9.5625-7.8594 16.695zm-4.1992-43.223-0.003906 0.003906-0.058594 0.039063-0.019531 0.011719-0.042969 0.023437-0.019531 0.011719h-0.003906l-0.019531 0.011719h-0.003906l-0.019532 0.011719h-0.003906l-0.019531 0.007812h-0.003907l-0.11328 0.039062-0.019531 0.007813h-0.003906l-0.019532 0.007813h-0.003906l-0.019531 0.003906h-0.003906l-0.042969 0.007812h-0.003906l-0.042969 0.007813h-0.003906c-0.10156 0.011719-0.20703 0.007812-0.30859-0.015625-0.074219-0.015625-0.14453-0.039063-0.21484-0.070313-0.14062-0.066406-0.25781-0.16016-0.34766-0.27344l-0.015625-0.019532-2.0938-2.3164-0.75-0.84766c-0.20312 4.8867 0.26172 8.6523 1.3984 11.301l0.019531 0.042969c1.2031 2.7773 3.1953 4.2656 5.9688 4.4688 2.9531-0.44531 5.0234-2.0781 6.207-4.8906 1.0977-2.6133 1.4727-6.2344 1.125-10.863-0.27344 0.30469-0.53906 0.59766-0.80859 0.88281-0.75391 0.80859-1.4844 1.543-2.1914 2.2031l-0.019531 0.019531-0.015625 0.011719-0.023438 0.023438-0.039062 0.03125v0.003906l-0.019532 0.015625-0.097656 0.058594h-0.003906l-0.019531 0.011718-0.003907 0.003907-0.019531 0.007812-0.003906 0.003907-0.019531 0.007812-0.003906 0.003906-0.070313 0.035156-0.015625 0.003907-0.007812 0.003906-0.015626 0.003906-0.007812 0.003907-0.015625 0.003906-0.007813 0.003906-0.070312 0.023438h-0.011719l-0.011719 0.003906h-0.011718l-0.011719 0.003906h-0.011719l-0.011718 0.003906h-0.011719l-0.011719 0.003906h-0.011719l-0.015625 0.003907h-0.21094l-0.007813-0.003907h-0.023437l-0.015625-0.003906-0.007813-0.003906-0.015625-0.003906-0.007812-0.003906-0.015625-0.003907-0.007813-0.003906-0.015625-0.003906-0.007812-0.003907-0.015625-0.003906-0.007813-0.003906-0.015625-0.003906-0.007812-0.003906-0.015625-0.003907-0.007813-0.003906-0.015625-0.003906-0.007812-0.003907-0.015625-0.003906-0.03125-0.015625-0.011719-0.007812-0.007813-0.003907-0.011718-0.007812-0.007813-0.003906-0.011719-0.007813-0.007812-0.003906-0.011719-0.007813-0.007812-0.003906-0.011719-0.007812-0.007812-0.003906-0.011719-0.007813-0.007813-0.007813-0.011718-0.007812-0.007813-0.007812-0.011719-0.007813-0.007812-0.007813-0.023438-0.015624-0.007812-0.007813-0.011719-0.007813-0.007813-0.007812-0.03125-0.023438-0.007812-0.003906-0.011719-0.011718-0.007812-0.003907-0.011719-0.011719-0.007812-0.003906-0.015626-0.015625-0.011718-0.015625-0.003906-0.003906-0.011719-0.015625-0.023438-0.023437-0.03125-0.039063h-0.003906l-0.015625-0.019531-0.058594-0.097656v-0.003907l-0.011718-0.019531-0.003907-0.003906-0.007812-0.019532c-0.625-1.1641-1.2461-2.3711-1.8594-3.6133-0.31641-0.64062-0.62891-1.2891-0.94141-1.9492-0.96094 1.8672-1.8867 3.75-2.7812 5.6406-0.070313 0.15625-0.17969 0.28125-0.30859 0.375zm-37.641 23.047c2.2305 5.1289 4.25 10.117 6.0586 14.957 1.4844 3.9727 2.8242 7.832 4.0156 11.582v-6.3633c-2.9219-7.1289-5.5469-12.699-7.8594-16.691-0.78125-1.3516-1.5195-2.5117-2.2148-3.4844zm12.074 20.176v6.3633c1.1914-3.7539 2.5312-7.6172 4.0156-11.59 1.8086-4.8359 3.8281-9.8203 6.0586-14.949-0.69531 0.97266-1.4336 2.1289-2.2148 3.4805-2.3125 3.9961-4.9336 9.5625-7.8594 16.691zm-4.1992-43.223-0.003907 0.003906-0.058593 0.039063-0.019532 0.011719-0.042968 0.023437-0.019532 0.011719h-0.003906l-0.019531 0.011719h-0.003907l-0.019531 0.011719h-0.003906l-0.019531 0.007812h-0.003906l-0.11328 0.039062-0.019531 0.007813h-0.003906l-0.019531 0.007813h-0.003907l-0.019531 0.003906h-0.003906l-0.042969 0.007812h-0.003906l-0.042969 0.007813h-0.003906c-0.10156 0.011719-0.20703 0.007812-0.30859-0.015625-0.074219-0.015625-0.14453-0.039063-0.21484-0.070313-0.14062-0.066406-0.25781-0.16016-0.34766-0.27344l-0.015625-0.019532-2.0977-2.3164-0.75-0.84766c-0.20312 4.8867 0.26172 8.6523 1.3984 11.297l0.019532 0.042969c1.2031 2.7773 3.1953 4.2656 5.9688 4.4688 2.9531-0.44531 5.0234-2.0781 6.207-4.8906 1.0977-2.6133 1.4727-6.2344 1.125-10.863-0.27344 0.30469-0.53906 0.59766-0.80859 0.88281-0.75391 0.80859-1.4844 1.543-2.1914 2.2031l-0.019531 0.019531-0.015626 0.011719-0.023437 0.023437-0.039063 0.03125v0.003907l-0.019531 0.015625-0.097656 0.058594h-0.003906l-0.019531 0.011718-0.003907 0.003906-0.019531 0.007813-0.003906 0.003906-0.019532 0.007813-0.003906 0.003906-0.070312 0.035156-0.015625 0.003906-0.007813 0.003907-0.015625 0.003906-0.007812 0.003906-0.015625 0.003907-0.007813 0.003906-0.070312 0.023437h-0.011719l-0.011719 0.003907h-0.011719l-0.011718 0.003906h-0.011719l-0.011719 0.003906h-0.011718l-0.011719 0.003906h-0.011719l-0.015625 0.003906h-0.21094l-0.007813-0.003906h-0.023437l-0.015626-0.003906-0.007812-0.003906-0.015625-0.003906-0.007813-0.003907-0.015624-0.003906-0.007813-0.003906-0.015625-0.003907-0.007812-0.003906-0.015626-0.003906-0.007812-0.003906-0.015625-0.003906-0.007813-0.003907-0.015624-0.003906-0.007813-0.003906-0.015625-0.003907-0.007812-0.003906-0.015626-0.003906-0.03125-0.015625-0.011718-0.007813-0.007813-0.003906-0.011719-0.007812-0.007812-0.003906-0.011719-0.007813-0.007812-0.003906-0.011719-0.007813-0.007812-0.003906-0.011719-0.007812-0.007813-0.003907-0.011718-0.007812-0.007813-0.007813-0.011719-0.007812-0.007812-0.007813-0.011719-0.007812-0.007813-0.007813-0.023437-0.015625-0.007813-0.007812-0.011718-0.007813-0.007813-0.007812-0.03125-0.023438-0.007812-0.003906-0.011719-0.011719-0.007812-0.003906-0.011719-0.011719-0.007813-0.003906-0.015625-0.015625-0.011719-0.015625-0.003906-0.003906-0.011718-0.015625-0.023438-0.023438-0.03125-0.039062h-0.003906l-0.015625-0.019531-0.058594-0.097657v-0.003906l-0.011719-0.019531-0.003906-0.003906-0.007812-0.019532c-0.60547-1.125-1.2266-2.3281-1.8516-3.6055-0.32031-0.64453-0.63672-1.2969-0.94531-1.957-0.96094 1.8672-1.8867 3.75-2.7812 5.6406-0.070312 0.15625-0.17969 0.28125-0.30859 0.375z"/>
    </symbol>

  </defs>
</svg>