<svg xmlns="http://www.w3.org/2000/svg" version="1.1" viewBox="-5.0 -10.0 110.0 135.0">
 <path d="m58.195 4.2969h12.875c1.043 0 1.9023 0.82031 1.9492 1.8672l3.9062 87.473c0.023438 0.53125-0.17188 1.0508-0.53906 1.4375-0.36719 0.38672-0.87891 0.60156-1.4102 0.60156h-16.793c-1 0-1.8398-0.75781-1.9414-1.75 0 0-3.6133-34.988-6.2578-50.504-2.6445 15.512-6.2578 50.504-6.2578 50.504-0.10156 0.99609-0.94141 1.75-1.9414 1.75h-16.793c-0.53125 0-1.043-0.21875-1.4102-0.60156-0.36719-0.38672-0.5625-0.90234-0.53906-1.4375l3.9062-87.473c0.046875-1.043 0.90625-1.8672 1.9492-1.8672h12.875 0.027343 16.371 0.027344zm-10.164 13.195h-6.7305-0.027343-0.44531l-0.19922 0.95312c-0.90625 4.3281-4.7227 7.4297-9.1445 7.4297h-1.5078l-2.9414 65.898h12.992c0.91406-8.6289 5.0078-46.516 7.3086-54.863 0.21484-0.77344 0.46484-1.3711 0.69922-1.793v-17.621zm3.9062 10.609v7.0117c0.23438 0.42188 0.48438 1.0156 0.69922 1.793 2.3008 8.3477 6.3945 46.238 7.3086 54.863h12.992l-2.9414-65.898h-1.5078c-4.4219 0-8.2383-3.1016-9.1445-7.4297l-0.19922-0.95312h-0.44531-0.027344-1.6523v4.6367c0 3.0117-2.1992 5.5078-5.0781 5.9727zm3.125-14.516h1.5586l-0.28906-5.3828h-12.695l-0.28906 5.3828zm-1.9531 3.9062h-1.1719v6.5508c0.69531-0.35547 1.1719-1.0781 1.1719-1.9141zm-13.383-9.2891h-8.9609l-0.24219 5.3828h8.9102l0.28906-5.3828zm-2.8867 9.2891h-6.4883l-0.19922 4.4766h1.332c2.5742 0 4.7969-1.8047 5.3242-4.3242l0.03125-0.15234zm32.98 4.4766-0.19922-4.4766h-6.4883l0.03125 0.15234c0.52734 2.5195 2.75 4.3242 5.3242 4.3242zm-9.2852-8.3828h8.9102l-0.24219-5.3828h-8.9609l0.28906 5.3828z" fill-rule="evenodd"/>
</svg>