<svg xmlns="http://www.w3.org/2000/svg" version="1.1" viewBox="-5.0 -10.0 110.0 135.0">
 <path d="m38.023 35.148c-1.9297-0.39063-3.918-0.59375-5.957-0.59375-16.512 0-29.918 13.402-29.918 29.914s13.406 29.918 29.918 29.918c16.383 0 29.707-13.199 29.91-29.535 1.9258 0.39063 3.918 0.59375 5.957 0.59375 16.512 0 29.918-13.402 29.918-29.914s-13.406-29.918-29.918-29.918c-16.383 0-29.707 13.199-29.91 29.535zm0.6875 2.1562c-2.1289-0.52344-4.3555-0.79688-6.6445-0.79688-15.434 0-27.965 12.527-27.965 27.961s12.531 27.965 27.965 27.965 27.961-12.531 27.961-27.965c0-2.1914-0.25391-4.3281-0.73047-6.375-0.007813-0.023438-0.015625-0.050781-0.019531-0.078125-1.9609-8.2969-7.625-15.168-15.148-18.773-0.023437-0.011719-0.050781-0.023438-0.074218-0.039063-1.6562-0.78906-3.4023-1.418-5.2188-1.8711-0.042969-0.007812-0.082032-0.015625-0.125-0.027343zm-6.6445 2.5977c-13.559 0-24.566 11.008-24.566 24.566s11.008 24.566 24.566 24.566 24.562-11.008 24.562-24.566-11.004-24.566-24.562-24.566zm0 1.9531c12.48 0 22.609 10.133 22.609 22.613s-10.129 22.613-22.609 22.613c-12.48 0-22.613-10.133-22.613-22.613s10.133-22.613 22.613-22.613zm0 8.0195c-8.0586 0-14.598 6.5391-14.598 14.594s6.5391 14.598 14.598 14.598c8.0547 0 14.594-6.543 14.594-14.598s-6.5391-14.594-14.594-14.594zm0 1.9531c6.9766 0 12.641 5.6641 12.641 12.641s-5.6641 12.645-12.641 12.645c-6.9805 0-12.645-5.668-12.645-12.645s5.6641-12.641 12.645-12.641zm4.3789 19.574c0-2.418-1.9609-4.3828-4.3789-4.3828-2.418 0-4.3828 1.9648-4.3828 4.3828 0 2.418 1.9648 4.3789 4.3828 4.3789 2.418 0 4.3789-1.9609 4.3789-4.3789zm-1.9531 0c0 1.3398-1.0859 2.4258-2.4258 2.4258s-2.4297-1.0859-2.4297-2.4258 1.0898-2.4297 2.4297-2.4297 2.4258 1.0898 2.4258 2.4297zm-9.3594-11.312c-2.418 0-4.3789 1.9609-4.3789 4.3789s1.9609 4.3828 4.3789 4.3828c2.418 0 4.3828-1.9648 4.3828-4.3828s-1.9648-4.3789-4.3828-4.3789zm13.863 0c-2.418 0-4.3828 1.9609-4.3828 4.3789s1.9648 4.3828 4.3828 4.3828c2.418 0 4.3789-1.9648 4.3789-4.3828s-1.9609-4.3789-4.3789-4.3789zm-13.863 1.9531c1.3398 0 2.4297 1.0859 2.4297 2.4258s-1.0898 2.4297-2.4297 2.4297c-1.3398 0-2.4258-1.0898-2.4258-2.4297s1.0859-2.4258 2.4258-2.4258zm13.863 0c1.3398 0 2.4258 1.0859 2.4258 2.4258s-1.0859 2.4297-2.4258 2.4297-2.4297-1.0898-2.4297-2.4297 1.0898-2.4258 2.4297-2.4258zm22.941 0.80469c1.9336 0.42188 3.9375 0.64453 5.9961 0.64453 15.434 0 27.965-12.527 27.965-27.961s-12.531-27.965-27.965-27.965-27.961 12.531-27.961 27.965v0.082031c1.1719 0.32031 2.3164 0.71094 3.4297 1.168-0.023438-0.41406-0.03125-0.83203-0.03125-1.25 0-13.559 11.004-24.566 24.562-24.566s24.566 11.008 24.566 24.566-11.008 24.566-24.566 24.566c-2.2148 0-4.3633-0.29688-6.4062-0.84766 0.20703 1.1758 0.34375 2.3789 0.41016 3.5977zm-25.492-5.3086c0-2.418-1.9609-4.3828-4.3789-4.3828-2.418 0-4.3828 1.9648-4.3828 4.3828 0 2.418 1.9648 4.3828 4.3828 4.3828 2.418 0 4.3789-1.9648 4.3789-4.3828zm-1.9531 0c0 1.3398-1.0859 2.4297-2.4258 2.4297s-2.4297-1.0898-2.4297-2.4297c0-1.3398 1.0898-2.4297 2.4297-2.4297s2.4258 1.0898 2.4258 2.4297zm26.566-0.46094c2.168 0.69141 4.4805 1.0664 6.875 1.0664 12.48 0 22.613-10.133 22.613-22.613s-10.133-22.613-22.613-22.613c-12.48 0-22.609 10.133-22.609 22.613 0 0.73047 0.03125 1.4531 0.10156 2.168 7.6758 3.8398 13.473 10.887 15.633 19.379zm6.875-36.145c-8.0547 0-14.594 6.543-14.594 14.598s6.5391 14.594 14.594 14.594c8.0586 0 14.598-6.5391 14.598-14.594s-6.5391-14.598-14.598-14.598zm0 1.9531c6.9805 0 12.645 5.668 12.645 12.645s-5.6641 12.641-12.645 12.641c-6.9766 0-12.641-5.6641-12.641-12.641s5.6641-12.645 12.641-12.645zm-6.9297 8.2617c-2.418 0-4.3789 1.9648-4.3789 4.3828s1.9609 4.3789 4.3789 4.3789c2.418 0 4.3828-1.9609 4.3828-4.3789s-1.9648-4.3828-4.3828-4.3828zm13.863 0c-2.418 0-4.3828 1.9648-4.3828 4.3828s1.9648 4.3789 4.3828 4.3789c2.418 0 4.3789-1.9609 4.3789-4.3789s-1.9609-4.3828-4.3789-4.3828zm-13.863 1.9531c1.3398 0 2.4297 1.0898 2.4297 2.4297s-1.0898 2.4258-2.4297 2.4258-2.4258-1.0859-2.4258-2.4258 1.0859-2.4297 2.4258-2.4297zm13.863 0c1.3398 0 2.4258 1.0898 2.4258 2.4297s-1.0859 2.4258-2.4258 2.4258c-1.3398 0-2.4297-1.0859-2.4297-2.4258s1.0898-2.4297 2.4297-2.4297z" fill-rule="evenodd"/>
</svg>