<svg xmlns="http://www.w3.org/2000/svg" version="1.1" viewBox="-5.0 -10.0 110.0 135.0">
 <path d="m54.859 43.766c-0.39062 0.39062-0.39062 1.0234 0 1.4141 0.19531 0.19531 0.45312 0.29297 0.70703 0.29297s0.51172-0.097656 0.70703-0.29297l3.2266-3.2188c3.5586 3.1797 8.0352 4.793 12.523 4.793 4.8125 0 9.625-1.8281 13.289-5.4805 0.34375-0.34375 0.39062-0.88672 0.10938-1.2852-0.054687-0.078125-1.1289-1.582-2.9023-3.3164 4.2266-1.6289 7.2188-5.8008 7.3594-6 0.24609-0.34766 0.24609-0.80859 0-1.1562-0.09375-0.13281-2.1758-3.043-5.2969-4.9688 1.832-4.1367 0.98438-9.2031 0.94531-9.4336-0.070313-0.41797-0.39844-0.74219-0.81641-0.8125-0.22656-0.039062-5.2539-0.875-9.3867 0.91406-1.9297-2.9609-4.6836-4.9219-4.8125-5.0117-0.34375-0.24219-0.80469-0.24219-1.1523 0-0.20312 0.14062-4.3828 3.125-6.0195 7.3398-1.7344-1.7812-3.2422-2.8516-3.3203-2.9062-0.39844-0.28125-0.94922-0.22266-1.293 0.12109-3.5508 3.5391-5.5078 8.25-5.5078 13.258 0 4.6836 1.7266 9.0898 4.8516 12.539zm0.37109-15.75c0-4.1836 1.5273-8.1289 4.3281-11.223 0.79688 0.64062 2.1719 1.8359 3.5 3.3945 0.25 0.29688 0.64844 0.41797 1.0234 0.31641 0.375-0.10156 0.65625-0.41016 0.72266-0.79297 0.60547-3.4375 3.8125-6.3555 5.1406-7.4336 0.96094 0.77734 2.8984 2.5156 4.1289 4.7148 0.26562 0.47656 0.87109 0.65234 1.3516 0.39062 2.8359-1.5508 6.6523-1.3711 8.2266-1.2109 0.16406 1.5859 0.34375 5.4453-1.2539 8.2773-0.13281 0.23438-0.16406 0.51562-0.089844 0.77734 0.078125 0.26172 0.25781 0.47656 0.49609 0.60156 2.332 1.2148 4.1797 3.2617 4.9961 4.2578-1.082 1.3242-4.0039 4.5156-7.4492 5.125-0.38281 0.066406-0.6875 0.34766-0.79297 0.72266-0.10156 0.375 0.019531 0.77344 0.31641 1.0234 1.5547 1.3281 2.7461 2.7031 3.3906 3.5-6.3281 5.6914-15.98 5.7109-22.352 0.09375l3.5938-3.5859c1.9805 1.6602 4.4688 2.5664 7.0312 2.5664 0.70703 0 1.4219-0.070312 2.1328-0.20703 0.54297-0.10547 0.89453-0.63281 0.78906-1.1758-0.10547-0.54297-0.62891-0.89844-1.1758-0.78906-2.6211 0.51562-5.3008-0.16406-7.3516-1.8164l6.2422-6.2266c1.3125 1.0156 2.918 1.5664 4.5703 1.5664 0.48438 0 0.97266-0.046874 1.457-0.14062 0.54297-0.10547 0.89453-0.63281 0.78906-1.1758-0.10547-0.54297-0.63281-0.89844-1.1758-0.78906-1.4805 0.28906-2.9922-0.046875-4.2031-0.89453l4.1875-4.1797c0.39062-0.39062 0.39062-1.0234 0-1.4141-0.39062-0.39062-1.0234-0.39062-1.4141 0l-4.1797 4.168c-0.80078-1.1914-1.1172-2.6562-0.82812-4.0938 0.10938-0.54297-0.24609-1.0664-0.78516-1.1758-0.54688-0.10938-1.0703 0.24609-1.1758 0.78516-0.41406 2.0977 0.09375 4.2383 1.3555 5.918l-6.25 6.2344c-1.6055-2.0312-2.2578-4.668-1.7461-7.2461 0.10938-0.54297-0.24609-1.0664-0.78906-1.1758s-1.0664 0.24609-1.1758 0.78906c-0.64062 3.2344 0.22266 6.5352 2.293 9.043l-3.6094 3.6016c-2.7461-3.0664-4.2656-6.9727-4.2656-11.121z"/>
 <path d="m46.891 73.91c0.14062 0.20312 3.125 4.3828 7.3398 6.0195-1.7812 1.7344-2.8516 3.2422-2.9062 3.3203-0.28125 0.39844-0.22266 0.94922 0.12109 1.293 3.5391 3.5508 8.25 5.5078 13.258 5.5078 4.6836 0 9.0898-1.7266 12.539-4.8516l3.2109 3.2188c0.19531 0.19531 0.45312 0.29297 0.70703 0.29297s0.51172-0.097657 0.70703-0.29297c0.39062-0.39062 0.39062-1.0234 0-1.4141l-3.2188-3.2266c6.5898-7.3711 6.375-18.73-0.69141-25.812-0.34375-0.34375-0.88672-0.39062-1.2852-0.10938-0.078125 0.054687-1.582 1.1289-3.3164 2.9023-1.6289-4.2266-5.8008-7.2188-6-7.3594-0.34766-0.24609-0.80859-0.24609-1.1562 0-0.13281 0.09375-3.043 2.1758-4.9688 5.2969-4.1328-1.8281-9.2031-0.98437-9.4336-0.94531-0.41797 0.070312-0.74219 0.39844-0.81641 0.81641-0.039063 0.22656-0.875 5.2539 0.91406 9.3867-2.9609 1.9297-4.9219 4.6836-5.0117 4.8125-0.23437 0.33594-0.23437 0.79688 0.007813 1.1445zm6.7969-4.707c0.48047-0.26953 0.65234-0.87109 0.39062-1.3516-1.5508-2.8359-1.3711-6.6523-1.2109-8.2266 1.5859-0.16016 5.4453-0.34375 8.2773 1.2539 0.23828 0.13281 0.51562 0.16406 0.77734 0.089844 0.26172-0.078125 0.47656-0.25781 0.60156-0.49609 1.2148-2.332 3.2617-4.1797 4.2578-4.9961 1.3242 1.0859 4.5156 4.0039 5.125 7.4492 0.066406 0.38281 0.34766 0.6875 0.72266 0.79297 0.375 0.10156 0.77344-0.023438 1.0234-0.31641 1.3281-1.5547 2.7031-2.7461 3.5-3.3906 5.6914 6.3281 5.7109 15.98 0.09375 22.352l-3.5938-3.6016c2.1211-2.5273 3.0117-5.875 2.3633-9.1562-0.10547-0.54297-0.62891-0.89844-1.1758-0.78906-0.54297 0.10547-0.89453 0.63281-0.78906 1.1758 0.51562 2.6211-0.16406 5.3047-1.8164 7.3516l-6.2227-6.2383c1.3125-1.6953 1.8438-3.8906 1.418-6.0312-0.10547-0.54297-0.63281-0.89844-1.1758-0.78906-0.54297 0.10547-0.89453 0.63281-0.78906 1.1758 0.29297 1.4844-0.046875 2.9922-0.89453 4.2031l-4.1797-4.1914c-0.39062-0.39062-1.0234-0.39062-1.4141 0-0.39062 0.39062-0.39062 1.0234 0 1.4141l4.168 4.1797c-1.1914 0.80078-2.6562 1.1172-4.0938 0.82812-0.54297-0.10938-1.0664 0.24609-1.1758 0.78516-0.10156 0.54297 0.25 1.0703 0.79297 1.1797 0.48438 0.09375 0.97266 0.14453 1.4531 0.14453 1.6094 0 3.1719-0.52734 4.4609-1.5l6.2344 6.2539c-2.0312 1.6055-4.6641 2.2578-7.2461 1.7461-0.54687-0.10938-1.0664 0.24609-1.1758 0.78516-0.10938 0.54297 0.24609 1.0664 0.78516 1.1758 0.71094 0.14062 1.4219 0.21094 2.1289 0.21094 2.5195 0 4.9648-0.875 6.9258-2.4922l3.5898 3.6016c-3.0703 2.75-6.9766 4.2695-11.129 4.2695-4.1836 0-8.1289-1.5273-11.223-4.3281 0.64062-0.79687 1.832-2.1719 3.3945-3.5 0.29687-0.25 0.41797-0.64844 0.31641-1.0234-0.10156-0.375-0.41016-0.65625-0.79297-0.72266-3.4375-0.60547-6.3516-3.8125-7.4336-5.1406 0.79297-0.96484 2.5273-2.9023 4.7305-4.1367z"/>
 <path d="m15.484 62.555c0.34375 0.34375 0.89062 0.39453 1.2852 0.10937 0.078125-0.054687 1.582-1.1289 3.3164-2.9023 1.6289 4.2266 5.8008 7.2188 6.0039 7.3594 0.17188 0.12109 0.375 0.18359 0.57812 0.18359s0.40625-0.0625 0.57812-0.18359c0.13281-0.09375 3.043-2.1758 4.9688-5.2969 4.1367 1.832 9.2031 0.98438 9.4336 0.94531 0.41797-0.070312 0.74219-0.39844 0.8125-0.81641 0.039062-0.22656 0.875-5.2539-0.91406-9.3867 2.9609-1.9297 4.9219-4.6836 5.0117-4.8125 0.24219-0.34375 0.24219-0.80469 0-1.1523-0.14062-0.20312-3.125-4.3867-7.3398-6.0195 1.7812-1.7344 2.8516-3.2422 2.9062-3.3203 0.28125-0.39844 0.22266-0.94922-0.12109-1.293-3.5391-3.5508-8.25-5.5078-13.258-5.5078-4.6836 0-9.0898 1.7266-12.539 4.8516l-3.2109-3.2188c-0.39062-0.39062-1.0234-0.39062-1.4141 0s-0.39062 1.0234 0 1.4141l3.2188 3.2266c-6.5938 7.375-6.3789 18.738 0.68359 25.82zm4.3164-20.797c-2.1211 2.5273-3.0117 5.875-2.3633 9.1562 0.09375 0.47656 0.51172 0.80469 0.98047 0.80469 0.0625 0 0.12891-0.007812 0.19531-0.019531 0.54297-0.10547 0.89453-0.63281 0.78906-1.1758-0.51562-2.6211 0.16406-5.3008 1.8164-7.3516l6.2227 6.2383c-1.3125 1.6953-1.8438 3.8867-1.4219 6.0312 0.089844 0.48047 0.50781 0.80859 0.97656 0.80859 0.0625 0 0.12891-0.007812 0.19531-0.019531 0.54297-0.10547 0.89453-0.63281 0.78906-1.1719-0.29297-1.4844 0.046875-2.9922 0.89453-4.207l4.1797 4.1914c0.19531 0.19531 0.45312 0.29297 0.70703 0.29297 0.25391 0 0.51172-0.097657 0.70703-0.29297 0.39062-0.39062 0.39062-1.0234 0-1.4141l-4.168-4.1797c1.1914-0.80078 2.6562-1.1133 4.0938-0.83203 0.53906 0.10937 1.0664-0.24609 1.1758-0.78906 0.10938-0.54297-0.24609-1.0664-0.78906-1.1758-2.0977-0.41406-4.2383 0.09375-5.918 1.3555l-6.2344-6.25c2.0312-1.6055 4.668-2.2539 7.2461-1.7461 0.53906 0.10938 1.0664-0.24609 1.1758-0.78906 0.10938-0.54297-0.24609-1.0664-0.78906-1.1758-3.2344-0.64062-6.5352 0.22266-9.043 2.293l-3.6016-3.6094c3.0703-2.75 6.9766-4.2695 11.125-4.2695 4.1836 0 8.1289 1.5273 11.223 4.3281-0.64062 0.79688-1.8359 2.1719-3.3945 3.5-0.29687 0.25-0.41797 0.64844-0.31641 1.0234 0.10156 0.375 0.41016 0.65625 0.79297 0.72266 3.4375 0.60547 6.3555 3.8125 7.4336 5.1406-0.77344 0.95703-2.5078 2.8906-4.7188 4.1289-0.47656 0.26953-0.65234 0.87109-0.39062 1.3516 1.5508 2.8359 1.3711 6.6523 1.2109 8.2266-1.5859 0.16406-5.4453 0.34375-8.2773-1.2539-0.23438-0.13281-0.51563-0.16406-0.77734-0.089844-0.26172 0.078126-0.47656 0.25781-0.60156 0.49609-1.2188 2.332-3.2656 4.1797-4.2578 4.9961-1.3242-1.082-4.5156-4.0039-5.125-7.4492-0.066407-0.38281-0.34766-0.6875-0.72266-0.79297-0.085937-0.023437-0.17578-0.035156-0.26172-0.035156-0.28906 0-0.56641 0.125-0.76172 0.35156-1.3281 1.5547-2.7031 2.7461-3.5 3.3906-5.6914-6.3281-5.7109-15.98-0.09375-22.352z"/>
 <path d="m34.895 25.711c1.7578 0 3.2734-0.24609 4.0586-0.39844l2.0859 2.0859c0.19531 0.19531 0.45313 0.29297 0.70703 0.29297s0.51172-0.097656 0.70703-0.29297c0.39062-0.39063 0.39062-1.0234 0-1.4141l-2.0859-2.0859c0.37109-1.8945 1.2812-8.125-2.0469-11.453-3.8672-3.8672-11.684-2.0078-12.016-1.9258-0.36328 0.089844-0.64453 0.37109-0.73438 0.73438-0.082031 0.33203-1.9453 8.1445 1.9258 12.016 1.9531 1.9453 4.9062 2.4414 7.3984 2.4414zm-7.5039-13.375c1.7734-0.32813 6.9727-1.0234 9.5156 1.5234 2.5352 2.5352 1.8477 7.7422 1.5234 9.5156-1.7734 0.32812-6.9805 1.0156-9.5156-1.5234-2.5391-2.5391-1.8477-7.7422-1.5234-9.5156z"/>
 <path d="m22.953 89.445c0.19531 0.19531 0.45312 0.29297 0.70703 0.29297s0.51172-0.097656 0.70703-0.29297l1.8438-1.8438c0.72266 0.14063 2.0664 0.35156 3.6211 0.35156 2.2656 0 4.957-0.44922 6.7383-2.2305 3.5273-3.5273 1.8359-10.621 1.7617-10.922-0.089843-0.36328-0.37109-0.64453-0.73438-0.73438-0.30078-0.074218-7.3945-1.7656-10.922 1.7617-3.0039 3.0039-2.2227 8.582-1.8789 10.359l-1.8438 1.8438c-0.39062 0.39062-0.39062 1.0234 0 1.4141zm5.1367-12.203c2.2227-2.2227 6.7734-1.6562 8.4219-1.3555 0.29688 1.6445 0.86719 6.1992-1.3555 8.4219s-6.7773 1.6523-8.4219 1.3555c-0.29688-1.6445-0.86719-6.1953 1.3555-8.4219z"/>
</svg>