<svg xmlns="http://www.w3.org/2000/svg" data-name="Layer 3" viewBox="0 0 128 160" x="0px" y="0px">
<path d="M74.21,95.06c2.01,0,3.86,.72,5.29,1.91V17.48c0-2.91-2.38-5.27-5.29-5.27H17.29c-2.92,0-5.29,2.36-5.29,5.27V96.97c1.44-1.19,3.28-1.91,5.29-1.91h56.91Z"/><path d="M17.29,115.79h56.91c2.92,0,5.29-2.36,5.29-5.27v-7.19c0-2.91-2.38-5.27-5.29-5.27H17.29c-2.92,0-5.29,2.36-5.29,5.27v7.19c0,2.91,2.38,5.27,5.29,5.27Zm3.03-10.18h51.98c1.98,0,1.98,3,0,3H20.32c-1.98,0-1.98-3,0-3Z"/><path d="M110.7,33.9h-28.2c0,80.6,.79,78.86-1.91,81.89h30.11c2.92,0,5.3-2.36,5.3-5.27V39.17c0-2.91-2.38-5.27-5.3-5.27Z"/></svg>