<svg xmlns="http://www.w3.org/2000/svg" version="1.1" viewBox="-5.0 -10.0 110.0 135.0">
 <path d="m85.109 40.398c-0.32031-1.8203-0.76172-3.5508-1.3086-5.1484-1.6484-4.8398-4.0781-8.6992-7.2188-11.48h-0.011719v-0.019531c-5.6094-4.9609-11.828-5.1016-14.078-4.9609l-1.7812-3.5703c-0.019532-0.050781-0.050782-0.089844-0.070313-0.12891l-0.019531-0.03125s-0.050782-0.058594-0.070313-0.089844l-0.019531-0.03125-0.10156-0.10156h-0.019532s-0.058594-0.058594-0.10156-0.078126l-0.039063-0.03125s-0.058593-0.03125-0.089843-0.050781c-0.011719 0-0.019532-0.011719-0.039063-0.019531-0.039063-0.019531-0.078125-0.03125-0.12109-0.039062-0.019531 0-0.039062-0.011719-0.058593-0.019532-0.03125 0-0.058594-0.011718-0.078126-0.019531h-0.058593-0.12891-19.371-0.12109c-0.019531 0-0.039063 0-0.058594 0.011719-0.03125 0-0.050781 0-0.078125 0.019531-0.019531 0-0.039062 0.011719-0.058594 0.019531-0.039062 0.011719-0.070312 0.019532-0.10937 0.039063-0.019532 0-0.03125 0.019531-0.050782 0.019531-0.03125 0.011719-0.058594 0.03125-0.089844 0.050781l-0.039062 0.03125s-0.058594 0.039063-0.089844 0.070313h-0.019531s-0.070313 0.078125-0.10156 0.10938l-0.019531 0.03125s-0.050781 0.058593-0.070312 0.089843l-0.019531 0.03125s-0.050782 0.078126-0.070313 0.12109l-1.7812 3.5781c-2.25-0.14062-8.4805 0-14.09 4.9805-3.1289 2.7812-5.5586 6.6406-7.2188 11.48-0.55078 1.6016-0.98828 3.3398-1.3086 5.1484-0.82813 4.6797-3.6211 20.941-4.5703 33.762-0.21094 2.8516-0.32031 5.3906-0.32031 7.5508 0 0.98828 0.37891 1.9219 1.0781 2.6211 0.69922 0.69922 1.6289 1.0898 2.6211 1.0898h3.9297c1.8086 0 3.3516-1.3008 3.6484-3.0781 0.30859-1.8281 0.80078-4.6719 1.4297-7.8516 1.4219-7.3008 2.6406-12.18 3.6484-15.441-0.16016 4.1406-0.10938 11.398 1.7891 15.949 0.41016 0.98828 1.2109 1.7188 2.1797 2.0703v3.5586c0 1.3789 0.98047 2.5898 2.3203 2.8906 5.7617 1.2695 11.559 1.8984 17.359 1.8984s11.602-0.62891 17.359-1.8984c1.3398-0.30078 2.3203-1.5117 2.3203-2.8906v-3.5586c0.96875-0.33984 1.7617-1.0781 2.1797-2.0703 1.8906-4.5508 1.9492-11.801 1.7891-15.949 1.0117 3.2617 2.2305 8.1406 3.6484 15.43 0.62109 3.1914 1.1211 6.0391 1.4219 7.8594 0.30078 1.7891 1.8281 3.0781 3.6484 3.0781h3.9297c0.98828 0 1.9219-0.39063 2.6211-1.0898 0.69922-0.69922 1.0781-1.6289 1.0781-2.6211 0-2.1602-0.10937-4.6992-0.32031-7.5508-0.94922-12.828-3.7383-29.09-4.5703-33.762zm-24.672-20.512c-0.87109 1.0312-3.3516 3.5-8.6992 5.7109 0.83984-2.1602 2.8398-5.6016 7.4219-8.2617l1.2812 2.5508zm-4.8086-2.9883c-3 2.2891-4.6797 4.8398-5.6289 6.8516-0.94141-2.0117-2.6289-4.5586-5.6289-6.8516zm-4.4609 19.551h20.02c-0.39844 2.6484-0.67188 5.7188-0.69141 9.1992h-19.328zm-10.328-19.109c4.6211 2.6797 6.6016 6.1211 7.4297 8.2695-5.3516-2.2109-7.8398-4.6914-8.7109-5.7188l1.2812-2.5586zm-21.859 64.621c-0.10938 0.66016-0.67969 1.1406-1.3516 1.1406h-3.9297c-0.37109 0-0.71094-0.14062-0.96875-0.39844-0.26172-0.26172-0.39844-0.60156-0.39844-0.96875 0-1.8281 0.078125-3.9414 0.23828-6.3008h7.5703c-0.5 2.6406-0.91016 4.9609-1.1719 6.5391zm7.9805-30.199c-1.9414 2.6797-4.0781 9.8516-6.3594 21.34h-7.8516c1.0195-12.5 3.6406-27.781 4.4414-32.281 0.30078-1.6992 0.71094-3.3203 1.2188-4.8086 1.3086-3.8281 3.1289-6.9688 5.4102-9.3789 1.3203 3.2188 4.1289 11.852 3.1406 25.121zm-1.3203-26.801c4.9492-3.9688 10.34-3.9297 11.922-3.8203 0.96875 1.25 4.0781 4.5391 11.281 7.1992v5.7891h-20.422c-0.89844-4.6797-2.1289-7.7695-2.7812-9.1797zm23.191 11.512v9.1992h-19.332c-0.019531-3.4688-0.28906-6.5391-0.69141-9.1992zm-17.281 38.5c-0.55078 0-1.0508-0.32812-1.2695-0.85156-2.4492-5.8789-1.4805-17.449-1.4297-17.988 0.37109-2.8984 0.55859-5.6094 0.62109-8.1289h19.352v26.969l-17.266-0.003906zm35.801 5.6719c0 0.28906-0.21094 0.55078-0.48828 0.60938-11.191 2.4609-22.539 2.4609-33.73 0-0.28125-0.058594-0.48828-0.32031-0.48828-0.60938v-3.3398h34.711v3.3398zm2.3516-6.5195c-0.21875 0.51953-0.71094 0.85156-1.2695 0.85156h-17.281v-26.969h19.352c0.058594 2.5195 0.26172 5.2305 0.62109 8.1289 0.050781 0.53125 1.0195 12.109-1.4297 17.988zm1.8711-39.98h-20.422v-5.7891c7.1992-2.6602 10.309-5.9609 11.281-7.2109 1.5703-0.12109 6.9492-0.17188 11.91 3.8203-0.64844 1.4102-1.8789 4.5-2.7812 9.1797zm1.4609 17.629c-0.98828-13.281 1.8203-21.898 3.1406-25.121 2.2812 2.3984 4.1016 5.5508 5.4102 9.3789 0.51172 1.4883 0.92187 3.1094 1.2188 4.8086 0.80078 4.5 3.4219 19.77 4.4414 32.281h-7.8516c-2.2812-11.488-4.4102-18.66-6.3594-21.34zm14.23 30.941c-0.26172 0.26172-0.60156 0.39844-0.96875 0.39844h-3.9297c-0.67188 0-1.2383-0.48047-1.3516-1.1406-0.26953-1.5703-0.67188-3.8984-1.1719-6.5391h7.5781c0.16016 2.3594 0.23828 4.4688 0.23828 6.3008 0 0.37109-0.14062 0.71094-0.39844 0.96875z"/>
 <path d="m35.711 58.262c-0.48828-0.42188-1.2188-0.35938-1.6406 0.12891-0.42187 0.48828-0.35937 1.2188 0.12891 1.6406l8.2617 7.0508c0.21875 0.19141 0.48828 0.28125 0.76172 0.28125 0.32812 0 0.66016-0.14062 0.89062-0.41016 0.42188-0.48828 0.35938-1.2188-0.12891-1.6406l-8.2617-7.0508z"/>
 <path d="m64.289 58.262-8.2617 7.0508c-0.48828 0.42188-0.55078 1.1484-0.12891 1.6406 0.23047 0.26953 0.55859 0.41016 0.89062 0.41016 0.26953 0 0.53906-0.089843 0.76172-0.28125l8.2617-7.0508c0.48828-0.42188 0.55078-1.1484 0.12891-1.6406-0.42188-0.48828-1.1484-0.55078-1.6406-0.12891z"/>
</svg>