<svg xmlns="http://www.w3.org/2000/svg" xmlns:xlink="http://www.w3.org/1999/xlink" version="1.1" x="0px" y="0px" viewBox="0 0 100 125" style="enable-background:new 0 0 100 100;" xml:space="preserve">
<g>
<path d="M86.47,85.86h-4c-1.1,0-2,0.9-2,2s0.9,2,2,2h4c1.1,0,2-0.9,2-2S87.58,85.86,86.47,85.86z"/>
<path d="M72.47,85.86h-4c-1.1,0-2,0.9-2,2s0.9,2,2,2h4c1.1,0,2-0.9,2-2S73.58,85.86,72.47,85.86z"/>
<path d="M58.47,85.86h-4c-1.1,0-2,0.9-2,2s0.9,2,2,2h4c1.1,0,2-0.9,2-2S59.58,85.86,58.47,85.86z"/>
<path d="M44.47,85.86h-4c-1.1,0-2,0.9-2,2s0.9,2,2,2h4c1.1,0,2-0.9,2-2S45.58,85.86,44.47,85.86z"/>
<path d="M30.47,85.86h-4c-1.1,0-2,0.9-2,2s0.9,2,2,2h4c1.1,0,2-0.9,2-2S31.58,85.86,30.47,85.86z"/>
<path d="M17.47,85.86h-4c-1.1,0-2,0.9-2,2s0.9,2,2,2h4c1.1,0,2-0.9,2-2S18.58,85.86,17.47,85.86z"/>
<path d="M35.41,63.05c-2.34-2.34-2.34-6.14,0-8.48l7.07-7.08l-2.83-2.82l-7.07,7.07c-3.9,3.9-3.9,10.24,0,14.14L34,67.29   c0.39,0.39,0.9,0.59,1.41,0.59s1.02-0.2,1.41-0.59c0.79-0.78,0.79-2.04,0-2.83L35.41,63.05z"/>
<path d="M59.45,30.52l8.49-8.48l2.83,2.83c1.56,1.56,3.6,2.34,5.65,2.34s4.1-0.78,5.66-2.34c1.51-1.51,2.34-3.52,2.34-5.66   s-0.83-4.15-2.34-5.66c-1.51-1.51-3.52-2.34-5.66-2.34c-2.13,0-4.14,0.83-5.65,2.34l-2.83,2.83l-5.66-5.66   c-0.78-0.78-2.05-0.78-2.83,0c-0.78,0.79-0.78,2.05,0,2.83l5.66,5.66l-8.49,8.49L59.45,30.52z M73.59,16.38   c1.52-1.51,4.15-1.51,5.66,0c0.76,0.76,1.17,1.76,1.17,2.83s-0.41,2.07-1.17,2.83c-0.78,0.78-1.81,1.17-2.83,1.17   s-2.05-0.39-2.83-1.17l-2.82-2.83L73.59,16.38z"/>
<path d="M53.84,50.17l34.69,26.4c-10.15-13.34-25.46-33.46-26.4-34.68c-0.22-0.29-0.35-0.63-0.4-0.98c-0.21-1.82-1-3.45-2.28-4.73   l-2.83-2.83l-4.24,4.24l2.83,2.83c0.78,0.78,0.78,2.05,0,2.83c-0.39,0.39-0.9,0.59-1.41,0.59c-0.52,0-1.03-0.2-1.42-0.59   l-8.48-8.48c-0.78-0.78-0.78-2.05,0-2.83s2.04-0.78,2.82,0l2.83,2.83l4.25-4.25l-2.83-2.83c-1.56-1.55-3.61-2.33-5.66-2.33   s-4.1,0.78-5.66,2.33c-3.12,3.12-3.12,8.2,0,11.32l8.49,8.48c1.28,1.28,2.91,2.07,4.72,2.29C53.22,49.82,53.56,49.95,53.84,50.17z"/>
</g>
</svg>