<svg xmlns="http://www.w3.org/2000/svg" version="1.1" viewBox="-5.0 -10.0 110.0 135.0">
 <g fill-rule="evenodd">
  <path d="m11.375 67.156c-2.2891 0-4.1523 1.8633-4.1523 4.1523v6.207c0 3.7031 3.0117 6.7148 6.7148 6.7148h75.707c1.7227 0 3.1289-1.4023 3.1289-3.125v-13.945h-81.398zm78.273 19.027h-75.707c-4.7812 0-8.668-3.8906-8.668-8.668v-6.207c0-3.3672 2.7383-6.1055 6.1055-6.1055h82.375c0.53906 0 0.97656 0.4375 0.97656 0.97656v14.922c0 2.8008-2.2773 5.082-5.082 5.082z"/>
  <path d="m93.754 67.156c-0.53906 0-0.97656-0.4375-0.97656-0.97656v-39.488c0-1.7227-1.4023-3.125-3.1289-3.125h-72.027c-1.7227 0-3.125 1.4023-3.125 3.125v14.598c0 0.28906 0.03125 0.51953 0.10156 0.79688l1.5391 5.8516c0.18359 0.69531 0.94922 2.957 3.1367 2.957h6.1797c1.4141 0 2.2188-1.1016 3.2031-3.1367l1.3008-2.6797c0.76953-1.5859 2.0547-4.2383 4.9609-4.2383h24.066c2.8008 0 5.0781 2.2773 5.0781 5.082v20.258c0 0.53906-0.4375 0.97656-0.97656 0.97656-0.53906 0-0.97656-0.4375-0.97656-0.97656v-20.258c0-1.7227-1.4023-3.1289-3.125-3.1289h-24.066c-1.4141 0-2.2188 1.1016-3.2031 3.1367l-1.3008 2.6797c-0.76953 1.582-2.0547 4.2344-4.9609 4.2344h-6.1797c-2.3828 0-4.3086-1.6914-5.0273-4.4141l-1.5391-5.8516c-0.11719-0.44141-0.16797-0.83984-0.16797-1.293v-14.598c0-2.8008 2.2773-5.0781 5.0781-5.0781h72.031c2.8008 0 5.0781 2.2773 5.0781 5.0781v39.488c0 0.53906-0.4375 0.97656-0.97656 0.97656z"/>
  <path d="m93.754 31.539h-65.191c-0.53906 0-0.97656-0.4375-0.97656-0.97656s0.4375-0.97656 0.97656-0.97656h65.191c0.53906 0 0.97656 0.4375 0.97656 0.97656s-0.4375 0.97656-0.97656 0.97656z"/>
  <path d="m26.902 37.141h-4.5391c-0.53906 0-0.97656-0.4375-0.97656-0.97656v-13.578c0-0.54297 0.4375-0.97656 0.97656-0.97656 0.53906 0 0.97656 0.43359 0.97656 0.97656v12.602h3.5625c0.37891 0 0.68359-0.30859 0.68359-0.68359v-11.918c0-0.54297 0.4375-0.97656 0.97656-0.97656s0.97656 0.43359 0.97656 0.97656v11.914c0 1.4531-1.1836 2.6367-2.6367 2.6367z"/>
  <path d="m22.363 61.273c-0.53906 0-0.97656-0.4375-0.97656-0.97656v-4.5781c0-0.54297 0.4375-0.97656 0.97656-0.97656 0.53906 0 0.97656 0.43359 0.97656 0.97656v4.5781c0 0.53906-0.4375 0.97656-0.97656 0.97656z"/>
  <path d="m78.418 37.289c-2.5859 0-4.6914 2.1055-4.6914 4.6914 0 2.5859 2.1055 4.6914 4.6914 4.6914 2.5859 0 4.6914-2.1055 4.6914-4.6914 0-2.5859-2.1055-4.6914-4.6914-4.6914zm0 11.336c-3.6641 0-6.6445-2.9805-6.6445-6.6445 0-3.6641 2.9805-6.6445 6.6445-6.6445 3.6641 0 6.6445 2.9805 6.6445 6.6445 0 3.6641-2.9805 6.6445-6.6445 6.6445z"/>
  <path d="m78.418 39.227c-0.53906 0-0.97656-0.4375-0.97656-0.97656v-1.9336c0-0.53906 0.4375-0.97656 0.97656-0.97656 0.53906 0 0.97656 0.4375 0.97656 0.97656v1.9336c0 0.53906-0.4375 0.97656-0.97656 0.97656z"/>
  <path d="m81.648 41.09c-0.33594 0-0.66406-0.17578-0.84766-0.48828-0.26953-0.46484-0.10938-1.0625 0.35938-1.3359l1.6758-0.96484c0.46875-0.26953 1.0625-0.10938 1.3359 0.35547 0.26953 0.46875 0.10938 1.0664-0.35938 1.3359l-1.6758 0.96875c-0.15234 0.085937-0.32031 0.12891-0.48828 0.12891z"/>
  <path d="m83.324 45.789c-0.16406 0-0.33203-0.042968-0.48828-0.13281l-1.6758-0.96484c-0.46875-0.26953-0.62891-0.86719-0.35938-1.3359s0.86719-0.625 1.3359-0.35938l1.6758 0.96875c0.46875 0.26953 0.62891 0.86719 0.35938 1.3359-0.17969 0.3125-0.50781 0.48828-0.84766 0.48828z"/>
  <path d="m78.418 48.625c-0.53906 0-0.97656-0.4375-0.97656-0.97656v-1.9375c0-0.53906 0.4375-0.97656 0.97656-0.97656 0.53906 0 0.97656 0.4375 0.97656 0.97656v1.9375c0 0.53906-0.4375 0.97656-0.97656 0.97656z"/>
  <path d="m73.512 45.789c-0.33594 0-0.66406-0.17578-0.84766-0.48828-0.26953-0.46875-0.10937-1.0625 0.35938-1.3359l1.6758-0.96875c0.46875-0.26953 1.0625-0.10938 1.332 0.35938s0.10938 1.0625-0.35938 1.3359l-1.6758 0.96484c-0.15234 0.089844-0.32031 0.13281-0.48828 0.13281z"/>
  <path d="m75.188 41.09c-0.16406 0-0.33203-0.042969-0.48828-0.12891l-1.6758-0.96875c-0.46875-0.26953-0.62891-0.86719-0.35938-1.3359 0.26953-0.46484 0.86719-0.625 1.3359-0.35547l1.6758 0.96484c0.46875 0.26953 0.62891 0.86719 0.35938 1.3359-0.17969 0.3125-0.50781 0.48828-0.84766 0.48828z"/>
  <path d="m24.344 56.695h-3.9609c-1.1523 0-2.0859-0.9375-2.0859-2.0859v-2.7383c0-0.53906 0.4375-0.97656 0.97656-0.97656 0.53906 0 0.97656 0.4375 0.97656 0.97656v2.7344c0 0.070312 0.0625 0.13281 0.13281 0.13281h3.9609c0.070312 0 0.13281-0.0625 0.13281-0.13281v-2.7383c0-0.53906 0.4375-0.97656 0.97656-0.97656s0.97656 0.4375 0.97656 0.97656v2.7344c0 1.1523-0.9375 2.0859-2.0859 2.0859z"/>
  <path d="m93.754 73.824h-87.504c-0.53906 0-0.97656-0.4375-0.97656-0.97656 0-0.53906 0.4375-0.97656 0.97656-0.97656h87.504c0.53906 0 0.97656 0.4375 0.97656 0.97656 0 0.53906-0.4375 0.97656-0.97656 0.97656z"/>
  <path d="m70.074 54.34c-0.48828 0-0.88281 0.39844-0.88281 0.88672v3.9648c0 0.48828 0.39844 0.88672 0.88281 0.88672h16.688c0.48828 0 0.88672-0.39844 0.88672-0.88672v-3.9648c0-0.48828-0.39844-0.88672-0.88672-0.88672zm16.688 7.6875h-16.688c-1.5664 0-2.8359-1.2734-2.8359-2.8398v-3.9648c0-1.5664 1.2734-2.8398 2.8359-2.8398h16.688c1.5664 0 2.8398 1.2734 2.8398 2.8398v3.9648c0 1.5664-1.2734 2.8398-2.8398 2.8398z"/>
  <path d="m60.262 23.566c-0.53906 0-0.97656-0.4375-0.97656-0.97656v-6.8203h-2.6562v6.8203c0 0.53906-0.4375 0.97656-0.97656 0.97656-0.53906 0-0.97656-0.4375-0.97656-0.97656v-6.9219c0-1.0195 0.82812-1.8477 1.8477-1.8477h2.8672c1.0195 0 1.8477 0.83203 1.8477 1.8477v6.9219c0 0.53906-0.4375 0.97656-0.97656 0.97656z"/>
  <path d="m75.52 23.566c-0.53906 0-0.97656-0.4375-0.97656-0.97656v-6.8203h-2.6562v6.8203c0 0.53906-0.4375 0.97656-0.97656 0.97656-0.53906 0-0.97656-0.4375-0.97656-0.97656v-6.9375c0-1.0117 0.82422-1.8359 1.8359-1.8359h2.8945c1.0117 0 1.8359 0.82422 1.8359 1.8359v6.9375c0 0.53906-0.4375 0.97656-0.97656 0.97656z"/>
  <path d="m70.91 23.566c-0.53906 0-0.97656-0.4375-0.97656-0.97656v-5.9609h-8.6953v5.9609c0 0.53906-0.4375 0.97656-0.97656 0.97656-0.53906 0-0.97656-0.4375-0.97656-0.97656v-6.9375c0-0.53906 0.4375-0.97656 0.97656-0.97656h10.648c0.53906 0 0.97656 0.4375 0.97656 0.97656v6.9375c0 0.53906-0.4375 0.97656-0.97656 0.97656z"/>
  <path d="m22.363 52.848c-0.53906 0-0.97656-0.4375-0.97656-0.97656v-15.707c0-0.53906 0.4375-0.97656 0.97656-0.97656 0.53906 0 0.97656 0.4375 0.97656 0.97656v15.707c0 0.53906-0.4375 0.97656-0.97656 0.97656z"/>
 </g>
</svg>