<svg xmlns="http://www.w3.org/2000/svg" xmlns:xlink="http://www.w3.org/1999/xlink" xml:space="preserve" version="1.1" style="shape-rendering:geometricPrecision;text-rendering:geometricPrecision;image-rendering:optimizeQuality;" viewBox="0 0 333.33 416.66249999999997" x="0px" y="0px" fill-rule="evenodd" clip-rule="evenodd"><defs><style type="text/css">
   
    .fil0 {fill:black;fill-rule:nonzero}
   
  </style></defs><g><path class="fil0" d="M98.85 288.87l-15.47 31.44c-1.62,3.29 -5.61,4.64 -8.9,3.02 -3.29,-1.62 -4.64,-5.61 -3.02,-8.9l12.57 -25.56 -28.87 0c-3.69,0 -7.17,-1.12 -10.07,-3.04 -2.88,-1.9 -5.2,-4.61 -6.63,-7.82l-28.79 -55.63c-2.05,-4.33 -2.24,-9.11 -0.88,-13.37 1.37,-4.26 4.29,-8.04 8.48,-10.37l1.09 -0.56c4.32,-2.04 9.08,-2.24 13.34,-0.88 4.46,1.42 8.37,4.53 10.68,9l23.85 46.07 63.14 0 0 -61.94 -19.78 0 -21.2 0 -21.2 0 -21.2 0c-3.68,0 -6.67,-2.98 -6.67,-6.67 0,-22.64 9.27,-43.24 24.19,-58.16 14.96,-14.95 35.55,-24.22 58.19,-24.22l14.32 0 0 0 14.33 0c22.64,0 43.24,9.27 58.16,24.19 14.95,14.95 24.22,35.55 24.22,58.19 0,3.68 -2.98,6.67 -6.67,6.67l-21.2 0 -21.2 0 -21.2 0 -19.78 0 0 61.94 79.44 0 0.83 0.05c2.12,0.11 4.22,0.57 6.17,1.38 2.12,0.89 4.13,2.2 5.87,3.93l17.93 17.93c3.56,3.54 5.36,8.22 5.37,12.9 0.01,4.65 -1.76,9.33 -5.3,12.9 -3.54,3.56 -8.22,5.36 -12.9,5.37 -4.66,0.01 -9.33,-1.76 -12.89,-5.3l-12.57 -12.57 -26.6 0 12.58 25.56c1.62,3.29 0.27,7.28 -3.02,8.9 -3.29,1.62 -7.28,0.27 -8.9,-3.02l-15.47 -31.44 -30.53 0 0 28.5c0,3.68 -2.98,6.67 -6.67,6.67 -3.68,0 -6.67,-2.98 -6.67,-6.67l0 -28.5 -30.53 0zm185.68 -268.59c1.82,-3.18 5.89,-4.27 9.06,-2.45 3.18,1.82 4.27,5.89 2.45,9.06l-5.84 10.12c-1.82,3.18 -5.89,4.27 -9.06,2.45 -3.18,-1.82 -4.27,-5.89 -2.45,-9.06l5.84 -10.12zm23.29 18.39c3.18,-1.82 7.24,-0.73 9.06,2.45 1.82,3.18 0.73,7.24 -2.45,9.06l-10.12 5.84c-3.18,1.82 -7.24,0.73 -9.06,-2.45 -1.82,-3.18 -0.73,-7.24 2.45,-9.06l10.12 -5.84zm10.93 27.56c3.68,0 6.67,2.98 6.67,6.67 0,3.68 -2.98,6.67 -6.67,6.67l-11.69 0c-3.68,0 -6.67,-2.98 -6.67,-6.67 0,-3.68 2.98,-6.67 6.67,-6.67l11.69 0zm-4.32 29.37c3.18,1.82 4.27,5.89 2.45,9.06 -1.82,3.18 -5.89,4.27 -9.06,2.45l-10.12 -5.84c-3.18,-1.82 -4.27,-5.89 -2.45,-9.06 1.82,-3.18 5.89,-4.27 9.06,-2.45l10.12 5.84zm-18.39 23.29c1.82,3.18 0.73,7.24 -2.45,9.06 -3.18,1.82 -7.24,0.73 -9.06,-2.45l-5.84 -10.12c-1.82,-3.18 -0.73,-7.24 2.45,-9.06 3.18,-1.82 7.24,-0.73 9.06,2.45l5.84 10.12zm-27.56 10.93c0,3.68 -2.98,6.67 -6.67,6.67 -3.68,0 -6.67,-2.98 -6.67,-6.67l0 -11.69c0,-3.68 2.98,-6.67 6.67,-6.67 3.68,0 6.67,2.98 6.67,6.67l0 11.69zm-29.37 -4.31c-1.82,3.18 -5.89,4.27 -9.06,2.45 -3.18,-1.82 -4.27,-5.89 -2.45,-9.06l5.84 -10.12c1.82,-3.18 5.89,-4.27 9.06,-2.45 3.18,1.82 4.27,5.89 2.45,9.06l-5.84 10.12zm-23.29 -18.39c-3.18,1.82 -7.24,0.73 -9.06,-2.45 -1.82,-3.18 -0.73,-7.24 2.45,-9.06l10.12 -5.84c3.18,-1.82 7.24,-0.73 9.06,2.45 1.82,3.18 0.73,7.24 -2.45,9.06l-10.12 5.84zm-10.93 -27.56c-3.68,0 -6.67,-2.98 -6.67,-6.67 0,-3.68 2.98,-6.67 6.67,-6.67l11.69 0c3.68,0 6.67,2.98 6.67,6.67 0,3.68 -2.98,6.67 -6.67,6.67l-11.69 0zm4.32 -29.37c-3.18,-1.82 -4.27,-5.89 -2.45,-9.06 1.82,-3.18 5.89,-4.27 9.06,-2.45l10.12 5.84c3.18,1.82 4.27,5.89 2.45,9.06 -1.82,3.18 -5.89,4.27 -9.06,2.45l-10.12 -5.84zm18.41 -23.26c-1.84,-3.18 -0.76,-7.25 2.42,-9.09 3.18,-1.84 7.25,-0.76 9.09,2.42l5.85 10.12c1.84,3.18 0.76,7.25 -2.42,9.09 -3.18,1.84 -7.25,0.76 -9.09,-2.42l-5.85 -10.12zm27.54 -10.96c0,-3.68 2.98,-6.67 6.67,-6.67 3.68,0 6.67,2.98 6.67,6.67l0 11.68c0,3.68 -2.98,6.67 -6.67,6.67 -3.68,0 -6.67,-2.98 -6.67,-6.67l0 -11.68zm6.67 22.76c9.43,0 17.96,3.82 24.14,10 6.18,6.18 10,14.71 10,24.14 0,9.43 -3.82,17.96 -10,24.14 -6.18,6.18 -14.71,10 -24.14,10 -9.43,0 -17.96,-3.82 -24.14,-10 -6.18,-6.18 -10,-14.71 -10,-24.14 0,-9.4 3.83,-17.94 10.02,-24.12 6.16,-6.19 14.7,-10.02 24.12,-10.02zm14.71 19.43c-3.76,-3.76 -8.97,-6.09 -14.71,-6.09 -5.74,0 -10.95,2.33 -14.71,6.09 -3.77,3.74 -6.09,8.95 -6.09,14.71 0,5.74 2.33,10.95 6.09,14.71 3.76,3.76 8.97,6.09 14.71,6.09 5.74,0 10.95,-2.33 14.71,-6.09 3.76,-3.76 6.09,-8.97 6.09,-14.71 0,-5.74 -2.33,-10.95 -6.09,-14.71zm-120.71 118.86l0 -42.61c0,-5.45 -2.22,-10.39 -5.79,-13.96 -3.52,-3.52 -8.33,-5.72 -13.65,-5.81l-0.33 -0 -0.33 0c-5.32,0.09 -10.14,2.29 -13.63,5.78 -3.58,3.61 -5.81,8.56 -5.81,13.99l0 42.61 19.78 0 19.78 0zm-52.89 0l0 -42.61c0,-1.03 0.04,-2.04 0.14,-3.05 -5.02,6.8 -8,15.2 -8,24.25l0 21.41 7.87 0zm66.07 -45.7c0.1,1.02 0.15,2.05 0.15,3.09l0 42.61 7.87 0 0 -21.41c0,-9.08 -2.99,-17.48 -8.02,-24.29zm-87.27 45.7l0 -21.41c0,-3.72 0.38,-7.35 1.1,-10.87 -5.69,9.39 -8.97,20.37 -8.97,32.07l0 0.21 7.87 0zm107.51 -32.3c0.72,3.52 1.11,7.17 1.11,10.89l0 21.41 7.87 0 0 -0.21c0,-11.72 -3.28,-22.71 -8.98,-32.09zm-128.71 32.3l0 -0.21c0,-15.94 5,-30.76 13.51,-42.98l-1.1 1.07c-11.03,11.03 -18.37,25.76 -19.95,42.11l7.55 0zm137.44 -43.26c8.56,12.24 13.58,27.09 13.58,43.05l0 0.21 7.55 0c-1.58,-16.35 -8.93,-31.08 -19.95,-42.11l-1.17 -1.15zm-68.59 141.79l0 -9.93 -67.18 0c-2.41,-0.02 -4.73,-1.33 -5.91,-3.62l-25.72 -49.69c-0.63,-1.22 -1.7,-2.07 -2.9,-2.45 -1.18,-0.37 -2.51,-0.31 -3.7,0.29l-0.07 0.04c-1.21,0.62 -2.07,1.69 -2.45,2.89 -0.37,1.17 -0.31,2.5 0.28,3.7 9.57,17.22 20.42,38 28.85,55.77 0.38,0.89 1.03,1.66 1.85,2.2 0.76,0.5 1.7,0.8 2.73,0.8l74.22 0zm13.33 -9.93l0 9.93 74.68 0c1.69,0.02 3.39,0.67 4.69,1.95l14.53 14.52c0.97,0.96 2.25,1.44 3.52,1.44 1.24,0 2.51,-0.5 3.48,-1.46 0.96,-0.97 1.44,-2.26 1.44,-3.53 0,-1.24 -0.5,-2.51 -1.46,-3.47l-17.93 -17.93c-0.46,-0.46 -1.02,-0.82 -1.6,-1.06 -0.52,-0.22 -1.06,-0.35 -1.59,-0.4l-79.75 0z"/></g>
  </svg>