<svg xmlns="http://www.w3.org/2000/svg" version="1.1" viewBox="-5.0 -10.0 110.0 135.0">
 <path d="m89.883 17.441-12.5-5.5547v0.003906c-0.054687-0.1875-0.15234-0.35547-0.28906-0.49219l-6.0586-6.0625c-0.21484-0.21484-0.50781-0.33594-0.8125-0.33594h-30.812c-0.050781 0-0.097656 0.003906-0.14844 0.011719l-0.035157 0.003906c-0.050781 0.007813-0.097656 0.019531-0.14844 0.035156h-0.011719 0.003906c-0.046874 0.011719-0.089843 0.03125-0.13281 0.050781l-0.027344 0.011719c-0.089844 0.042969-0.17578 0.10156-0.25 0.16406l-0.027344 0.027344-0.03125 0.027343-5.9102 5.9102-13.836 6.1992c-0.95312 0.41797-1.5664 1.3633-1.5586 2.4023v3.7188l-7.1875 3.2227c-0.95312 0.41797-1.5664 1.3594-1.5586 2.3984v62.664c0.003907 1.7383 1.4141 3.1523 3.1562 3.1523h67.844c1.7383-0.003906 3.1484-1.4141 3.1484-3.1523v-6.1914h5.5898c1.7461 0 3.1602-1.4141 3.1602-3.1562v-62.648c0.007812-1.0469-0.60938-1.9922-1.5664-2.4102zm-19.605-9.6055 4.6016 4.6016-13.547 13.754-4.9531-4.457zm-15.461 69.699-6.4102-8.1133h12.82zm-7.4414-10.418 4.7617-30.84h4.5l5.5898 30.84zm9.5234-33.145h-4.9492l-2.3359-6.2852 5.0742-4.375 5.2578 4.7344zm-17.5-26.184 13.613 13.914-4.707 4.0586-13.332-13.543zm15.309 12.352-5.7422-5.8672h11.617zm12.844-12.84-4.6641 4.6641h-16.168l-4.5664-4.6641zm12.848 84.547c0 0.46875-0.37891 0.84766-0.84766 0.84766h-67.844c-0.46875 0-0.85156-0.37891-0.85156-0.84766v-62.66c-0.007813-0.13281 0.074219-0.25391 0.19922-0.29688l6.2461-2.8008v56.41c0 1.7422 1.4141 3.1523 3.1523 3.1523h59.945zm8.7461-9.3477c0 0.46875-0.37891 0.84766-0.84766 0.85156h-67.848c-0.46875-0.003906-0.84766-0.38281-0.84766-0.85156v-62.652c-0.007812-0.13281 0.074219-0.25781 0.19922-0.30078l13.301-5.9531 14.16 14.379 2.6992 7.2734-5.0703 32.848v0.019531c0 0.023438-0.007813 0.050781-0.007813 0.074219v0.042969 0.082031 0.035156h0.003907c0.003906 0.078125 0.015625 0.15625 0.039062 0.23438v0.011719c0.011719 0.03125 0.019531 0.066406 0.035157 0.10156l0.011718 0.03125c0.011719 0.027344 0.023438 0.050782 0.035156 0.078126 0.011719 0.023437 0.015626 0.027343 0.023438 0.039062s0.023438 0.042969 0.039062 0.0625c0.015626 0.019531 0.019532 0.03125 0.03125 0.046875 0.011719 0.015625 0.015626 0.023437 0.023438 0.035156l8.7891 11.113 0.007813 0.011719c0.019531 0.023438 0.039063 0.046875 0.0625 0.070313l0.023437 0.027344c0.023438 0.023437 0.046876 0.042968 0.070313 0.0625v-0.003907c0.054687 0.046875 0.11328 0.085938 0.17188 0.12109l0.035156 0.019531v-0.003906c0.050782 0.027344 0.10156 0.050781 0.15625 0.070312h0.015625-0.003906c0.050781 0.015626 0.10156 0.027344 0.14844 0.035157l0.046876 0.007812c0.054687 0.007813 0.10937 0.015625 0.16406 0.015625h0.007812c0.050782 0 0.10547-0.007812 0.16016-0.015625l0.046875-0.007812c0.050781-0.007813 0.10156-0.019531 0.14844-0.035157h0.015625c0.050782-0.019531 0.10547-0.042968 0.15625-0.070312l0.035156-0.019531v0.003906c0.058594-0.035156 0.11719-0.078125 0.17188-0.12109 0.023437-0.019531 0.046874-0.039062 0.070312-0.0625l0.023438-0.027343c0.023437-0.023438 0.042968-0.046876 0.0625-0.070313l0.007812-0.011719 8.7852-11.121c0.011719-0.015624 0.023438-0.03125 0.035156-0.046874 0.011719-0.015626 0.019532-0.023438 0.027344-0.035157 0.007813-0.011719 0.03125-0.054687 0.046875-0.082031l0.011719-0.023438h0.003906c0.035156-0.070312 0.066406-0.14844 0.085938-0.22656v-0.015625c0.007812-0.03125 0.015625-0.066406 0.019531-0.10156v-0.035156c0-0.027344 0.007813-0.054687 0.007813-0.078125 0.003906-0.027343 0-0.03125 0-0.046875v-0.074218-0.046876c0-0.023437-0.003907-0.046874-0.007813-0.070312v-0.03125l-5.9336-32.762 3.5234-6.8359 14.219-14.43 12.398 5.5117c0.12891 0.042969 0.21094 0.16797 0.20312 0.30078zm-6.4102-49.75h-13.012c-0.63672 0-1.1523 0.51562-1.1523 1.1484v12.516c0 4.2305 3.4258 7.6602 7.6562 7.6602 4.2305 0 7.6602-3.4297 7.6602-7.6602v-12.516c-0.003907-0.63281-0.51953-1.1484-1.1523-1.1484zm-1.1523 2.3008v1.8125h-10.711v-1.8086zm-5.3555 16.719c-2.957-0.003906-5.3516-2.4023-5.3555-5.3555v-7.2461h10.711v7.2461c-0.003906 2.9531-2.3984 5.3516-5.3555 5.3555z"/>
</svg>