<svg xmlns="http://www.w3.org/2000/svg" viewBox="0 0 64 80" x="0px" y="0px">
<title>christmas-hat-snow-winter</title><g data-name="EX OutLine">
<rect x="6.707" y="23.207" width="2" height="2" transform="translate(-14.86 12.54) rotate(-45.001)"/>
<rect x="9.536" y="20.379" width="2" height="2" transform="translate(-12.032 13.712) rotate(-45.002)"/>
<rect x="9.536" y="23.207" width="2" height="2" transform="translate(-14.031 14.54) rotate(-45)"/>
<rect x="6.707" y="20.379" width="2" height="2" transform="translate(-12.86 11.712) rotate(-45.001)"/>
<rect x="11.293" y="13.707" width="2" height="2" transform="translate(-6.799 13) rotate(-45)"/>
<rect x="55.932" y="17.878" width="2" height="2" transform="translate(3.326 45.786) rotate(-45)"/>
<rect x="53.103" y="15.049" width="2" height="2" transform="translate(4.499 42.959) rotate(-45.002)"/>
<rect x="55.932" y="15.049" width="2" height="2" transform="translate(5.327 44.957) rotate(-45)"/>
<rect x="53.103" y="17.878" width="2" height="2" transform="translate(2.499 43.788) rotate(-45.002)"/>
<rect x="55.225" y="26.293" width="2" height="2" transform="translate(-2.831 47.751) rotate(-45)"/>
<rect x="45.707" y="11.707" width="2" height="2" transform="translate(4.695 36.749) rotate(-45)"/>
<path d="M49.889,34.108C49.4,30.913,46.981,19.129,37.43,15.742a4.688,4.688,0,0,0,.333-4.417,4.529,4.529,0,0,0-.79-4.972A4.528,4.528,0,0,0,32,5.563a4.529,4.529,0,0,0-4.973.79,4.529,4.529,0,0,0-.79,4.972,4.688,4.688,0,0,0,.333,4.417C17.02,19.129,14.6,30.913,14.111,34.108A4,4,0,0,0,15,42h.153l1.178,7.07c-.046.041-.1.076-.141.12A3.538,3.538,0,0,0,15.518,53a3.538,3.538,0,0,0,.672,3.81,3.344,3.344,0,0,0,2.81.91V59h2V57.709a4.049,4.049,0,0,0,.461.042,3.264,3.264,0,0,0,2.349-.941A3.538,3.538,0,0,0,24.482,53a3.538,3.538,0,0,0-.672-3.81,3.153,3.153,0,0,0-.81-.585V42H41v6.6a3.136,3.136,0,0,0-.81.585A3.538,3.538,0,0,0,39.518,53a3.538,3.538,0,0,0,.672,3.81,3.34,3.34,0,0,0,2.81.909V59h2V57.709a4.049,4.049,0,0,0,.461.042,3.264,3.264,0,0,0,2.349-.941A3.538,3.538,0,0,0,48.482,53a3.538,3.538,0,0,0-.672-3.81c-.044-.044-.095-.079-.141-.12L48.847,42H49a4,4,0,0,0,.889-7.892ZM28.23,10.9a2.684,2.684,0,0,1,.212-3.131,2.684,2.684,0,0,1,3.131-.212,1.007,1.007,0,0,0,.855,0,2.683,2.683,0,0,1,3.131.212,2.684,2.684,0,0,1,.212,3.131,1,1,0,0,0,0,.854,2.686,2.686,0,0,1-.212,3.132,2.683,2.683,0,0,1-3.131.212l-.013,0c-.008,0-.015-.011-.024-.015a1,1,0,0,0-.355-.07c-.012,0-.024-.008-.035-.008s-.033.01-.05.011a1,1,0,0,0-.349.078c-.009,0-.019,0-.029.007a2.682,2.682,0,0,1-3.131-.212,2.686,2.686,0,0,1-.212-3.132A1,1,0,0,0,28.23,10.9ZM22.5,53.427a1.7,1.7,0,0,1-.1,1.969,1.7,1.7,0,0,1-1.968.1,1,1,0,0,0-.854,0,1.7,1.7,0,0,1-1.968-.1,1.7,1.7,0,0,1-.1-1.969,1,1,0,0,0,0-.854,1.7,1.7,0,0,1,.1-1.969,1.7,1.7,0,0,1,1.968-.1,1,1,0,0,0,.854,0,1.7,1.7,0,0,1,1.968.1,1.7,1.7,0,0,1,.1,1.969A1,1,0,0,0,22.5,53.427ZM17.18,42H21v6.281a4.4,4.4,0,0,0-1,.236,4.14,4.14,0,0,0-1.775-.247ZM23,40H17V38H15v2a2,2,0,0,1,0-4h4v2h2V36h2Zm4,0H25V36h2Zm4,0H29V36h2Zm4,0H33V36h2Zm4,0H37V36h2Zm-1.719-6,.689-2.758-1.94-.484L35.219,34H33V30H31v4H28.781l-.811-3.242-1.94.484L26.719,34H16.161a32.277,32.277,0,0,1,1.682-6H41V26H18.719c1.847-3.781,4.889-7.562,9.826-8.762a4.294,4.294,0,0,0,.577.153l-2.817,2.722,1.39,1.438L31,18.356v3.726h2V18.548l2.516,2.714,1.466-1.36-2.3-2.481a4.272,4.272,0,0,0,.761-.186c4.936,1.2,7.98,4.98,9.83,8.765H43v2h3.151a32.415,32.415,0,0,1,1.686,6H37.281ZM46.5,53.427A1.471,1.471,0,0,1,44.427,55.5a1,1,0,0,0-.854,0A1.471,1.471,0,0,1,41.5,53.427a1,1,0,0,0,0-.854A1.471,1.471,0,0,1,43.573,50.5a1,1,0,0,0,.854,0A1.471,1.471,0,0,1,46.5,52.573,1,1,0,0,0,46.5,53.427Zm-.722-5.156A4.169,4.169,0,0,0,44,48.517a4.407,4.407,0,0,0-1-.237V42h3.82ZM49,40H45V38H43v2H41V36h6v2h2V36a2,2,0,0,1,0,4Z"/>
<rect x="41" y="30" width="2" height="2"/>
<rect x="23" y="22" width="2" height="2"/>
</g>
</svg>