<svg xmlns="http://www.w3.org/2000/svg" xmlns:xlink="http://www.w3.org/1999/xlink" version="1.1" x="0px" y="0px" viewBox="0 0 64 80" style="enable-background:new 0 0 64 64;" xml:space="preserve">
<path d="M28.1958656,33.6255798l-2.2135181,0.2446823c0.1779423,1.6128845,0.3225517,3.3147736,0.4115562,5.0499992  l0.1112041-0.0111351V38.897995c0.1779423-1.2013321,0.7452393-2.2691193,1.5572834-3.0923004  c0.100071-0.100071,0.2113457-0.2002106,0.3225498-0.27808v-0.0110664  C28.32934,34.8713799,28.2626019,34.2484818,28.1958656,33.6255798z M21.1214237,12.8918161l-1.6462212,1.4905462  c0.9677181,1.0677891,1.8575649,2.4137268,2.6362057,4.0154781l2.0021725-0.9788513  C23.234869,15.6392279,22.2337494,14.1153469,21.1214237,12.8918161z M24.9700947,19.3655586l-2.0577755,0.8231106  c0.567297,1.4238091,1.0789223,3.0144272,1.5127468,4.749651l2.1579132-0.5561619  C26.1158218,22.5579281,25.5818596,20.8671722,24.9700947,19.3655586z M27.0612717,26.4287987l-2.1801834,0.4560928  c0.3337536,1.5572147,0.6229,3.2257023,0.856514,4.9720631l2.202383-0.289217  C27.6953049,29.7657757,27.4060898,28.03055,27.0612717,26.4287987z"/><path d="M35.8041344,33.6255798c-0.0667381,0.6229019-0.1334724,1.2458-0.1890755,1.8909683v0.0110664  c0.9899864,0.8342438,1.6796227,2.0244408,1.8798332,3.3703804v0.0111313l0.1112061,0.0111351  c0.0890045-1.7352257,0.2336121-3.4371147,0.4115524-5.0499992L35.8041344,33.6255798z M42.8785782,12.8918161  c-1.1123276,1.2235308-2.1134453,2.7474117-2.9921608,4.527173l2.0021744,0.9788513  c0.7786407-1.6017513,1.6684875-2.9476891,2.6362038-4.0154781L42.8785782,12.8918161z M39.0299072,19.3655586  c-0.6117668,1.5016136-1.1457291,3.1923695-1.6128883,5.0165997l2.157917,0.5561619  c0.4338226-1.7352238,0.9454498-3.3258419,1.5127449-4.749651L39.0299072,19.3655586z M36.9387283,26.4287987  c-0.3448181,1.6017513-0.6340332,3.336977-0.8787117,5.1389389l2.2023811,0.289217  c0.2336121-1.7463608,0.5227623-3.4148483,0.856514-4.9720631L36.9387283,26.4287987z"/><path d="M34.7587891,50.0205078c-0.1645508,0-0.3291016-0.0410156-0.4780273-0.1220703  c-0.2871094-0.15625-0.4799805-0.4433594-0.5161133-0.7675781l-0.5341797-4.828125  c-0.0039063-0.0371094-0.0058594-0.0732422-0.0058594-0.1103516v-3.4492188h-2.4492188v3.4492188  c0,0.0371094-0.0019531,0.0732422-0.0058594,0.1103516l-0.5341797,4.828125  c-0.0361328,0.3242188-0.2290039,0.6113281-0.5161133,0.7675781c-0.2875977,0.15625-0.6333008,0.1621094-0.925293,0.0166016  c-0.2255859-0.1132813-0.4257813-0.2509766-0.6235352-0.3925781c-0.0654297-0.0439453-0.1279297-0.0976563-0.2143555-0.1845703  l-0.4868164-0.4140625c-0.065918-0.0439453-0.1269531-0.0957031-0.1806641-0.1552734l-0.3237305-0.3681641  c-0.1166992-0.1328125-0.2080078-0.2539063-0.2998047-0.390625c-0.0087891-0.0029297-0.0683594-0.0917969-0.1235352-0.1787109  c-0.0844727-0.1152344-0.1655273-0.2539063-0.2441406-0.3955078c-0.0771484-0.1181641-0.1708984-0.3037109-0.2485352-0.4902344  c-0.0581055-0.0986328-0.1391602-0.3066406-0.2138672-0.5087891c-0.003418-0.0097656-0.0317383-0.0859375-0.034668-0.0957031  c-0.0336914-0.0644531-0.0302734-0.0703125-0.0493164-0.140625l-0.1445313-0.5341797  c-0.0507813-0.1875-0.0800781-0.3623047-0.0878906-0.5322266c-0.0268555-0.1611328-0.0439453-0.2773438-0.0546875-0.4013672  c-0.0131836-0.1777344-0.0253906-0.3583984-0.0253906-0.5400391v-4.4492188c0-0.1748047,0.0112305-0.3388672,0.0234375-0.5019531  c0.0131836-0.1357422,0.0253906-0.2480469,0.0415039-0.3554688c0.0009766-0.0273438,0.0029297-0.0546875,0.0063477-0.0820313  c0.0014648-0.0175781,0.003418-0.0351563,0.0058594-0.0517578c0.2041016-1.3769531,0.8388672-2.6386719,1.8349609-3.6484375  c0.1069336-0.1064453,0.2192383-0.2089844,0.3320313-0.2988281c0.0161133-0.015625,0.0322266-0.03125,0.0493164-0.0458984  C28.9125977,33.7421875,30.4282227,33.1816406,32,33.1816406s3.0874023,0.5605469,4.2680664,1.5771484  c0.0322266,0.0283203,0.0629883,0.0585938,0.0913086,0.0898438c1.1469727,1.0078125,1.8999023,2.3886719,2.125,3.9023438  c0.0019531,0.015625,0.0039063,0.03125,0.0053711,0.0458984c0.0478516,0.3027344,0.0717773,0.6210938,0.0717773,0.9462891v4.4492188  c0,0.4921875-0.0532227,0.9746094-0.1582031,1.4355469l-0.1791992,0.6455078  c-0.0068359,0.0253906-0.0146484,0.0507813-0.0234375,0.0761719c-0.0029297,0.0087891-0.0058594,0.0166016-0.0087891,0.0253906  c-0.3295898,0.9238281-0.8364258,1.7382813-1.5068359,2.421875c-0.0488281,0.0498047-0.1020508,0.09375-0.1591797,0.1318359  l-0.5380859,0.4609375c-0.0302734,0.0351563-0.0927734,0.0888672-0.1791992,0.1474609  c-0.1767578,0.1269531-0.3769531,0.2646484-0.6025391,0.3779297C35.0649414,49.9853516,34.9121094,50.0205078,34.7587891,50.0205078  z M35.2246094,44.1376953l0.3242188,2.9306641c0.3222656-0.3994141,0.5761719-0.8544922,0.7563477-1.3574219l0.159668-0.5732422  c0.0600586-0.2695313,0.0966797-0.6035156,0.0966797-0.9453125v-4.4492188c0-0.234375-0.0175781-0.4589844-0.0527344-0.6699219  c-0.0039063-0.0224609-0.0068359-0.0458984-0.0092773-0.0693359c-0.1674805-1.0585938-0.7094727-2.0205078-1.5292969-2.7119141  c-0.0322266-0.0273438-0.0629883-0.0576172-0.0913086-0.0878906c-1.612793-1.3222656-4.152832-1.3212891-5.7626953,0.0039063  c-0.0463867,0.0507813-0.0981445,0.0966797-0.1552734,0.1367188c-0.0668945,0.046875-0.1328125,0.109375-0.1928711,0.1699219  c-0.6733398,0.6826172-1.1108398,1.5341797-1.2631836,2.4619141c-0.0009766,0.0605469-0.0068359,0.1210938-0.019043,0.1816406  c-0.015625,0.0800781-0.0224609,0.1611328-0.0302734,0.2412109c-0.0078125,0.1054688-0.0170898,0.2207031-0.0170898,0.34375  v4.4492188c0,0.1308594,0.0102539,0.2607422,0.019043,0.3818359c0.0063477,0.0751953,0.0205078,0.1542969,0.034668,0.2373047  c0.0092773,0.0537109,0.0239258,0.1708984,0.0239258,0.2265625c0,0.0009766,0.0004883,0.0302734,0.0205078,0.1044922  l0.1318359,0.4873047c0.0112305,0.0292969,0.0209961,0.0546875,0.0268555,0.0712891  c0.0581055,0.15625,0.1005859,0.2802734,0.1586914,0.3886719c0.0751953,0.1689453,0.1152344,0.2509766,0.1621094,0.3242188  c0.0639648,0.1123047,0.0942383,0.1728516,0.1333008,0.2246094c0.0161133,0.0214844,0.0664063,0.0976563,0.0805664,0.1201172  c0.0209961,0.0253906,0.0766602,0.1083984,0.0952148,0.1357422c0.0405273,0.0605469,0.0800781,0.1142578,0.1264648,0.1679688  l0.3237305-2.9248047v-4.3945313c0-0.5527344,0.4477539-1,1-1h4.4492188c0.5522461,0,1,0.4472656,1,1V44.1376953z"/><path d="M33.7646484,49.1308594l-0.5341797-4.828125c-0.0039063-0.0371094-0.0058594-0.0732422-0.0058594-0.1103516v-3.4492188  h-2.4492188v3.4492188c0,0.0371094-0.0019531,0.0732422-0.0058594,0.1103516l-0.5341797,4.828125l-1.9882813-0.2207031  l0.5283203-4.7724609v-4.3945313c0-0.5527344,0.4477539-1,1-1h4.4492188c0.5522461,0,1,0.4472656,1,1v4.3945313l0.5283203,4.7724609  L33.7646484,49.1308594z"/><path d="M34.2246094,45.1923828h-4.4492188c-0.5522461,0-1-0.4472656-1-1v-4.4492188c0-0.5527344,0.4477539-1,1-1h4.4492188  c0.5522461,0,1,0.4472656,1,1v4.4492188C35.2246094,44.7451172,34.7768555,45.1923828,34.2246094,45.1923828z   M30.7753906,43.1923828h2.4492188v-2.4492188h-2.4492188V43.1923828z"/><path d="M35.3369141,55.203125h-6.6738281c-0.284668,0-0.5556641-0.1210938-0.7451172-0.3330078  c-0.1899414-0.2119141-0.2802734-0.4951172-0.2485352-0.7783203L28.78125,44.0820313  c0.0561523-0.5058594,0.484375-0.8896484,0.9941406-0.8896484h4.4492188c0.5097656,0,0.9379883,0.3837891,0.9941406,0.8896484  l1.1118164,10.0097656c0.0317383,0.2832031-0.0585938,0.5664063-0.2485352,0.7783203  C35.8925781,55.0820313,35.621582,55.203125,35.3369141,55.203125z M29.7807617,53.203125h4.4384766l-0.8901367-8.0107422  h-2.6582031L29.7807617,53.203125z"/><path d="M26,45h-4v-1c0-21.9863281-7.4628906-27.1083984-7.5380859-27.1572266l-0.8066406-0.5263672l0.4873047-0.8310547l3-5  l1.7148438,1.0292969l-2.5537109,4.2558594C18.3686523,17.6728516,23.8061523,24.4335938,23.9951172,43H26V45z"/><path d="M42,45h-4v-2h2.0048828c0.1889648-18.5664063,5.6264648-25.3271484,7.6914063-27.2294922l-2.5537109-4.2558594  l1.7148438-1.0292969l3.5053711,5.8417969l-0.8330078,0.5205078C49.4628906,16.8916016,42,22.0136719,42,44V45z"/></svg>